<svg width="9" height="14" viewBox="0 0 9 14" fill="none" xmlns="http://www.w3.org/2000/svg">
<path id="&#239;&#129;&#184;" fill-rule="evenodd" clip-rule="evenodd" d="M7.7891 7.46789L2.67487 12.8073C2.55185 12.9358 2.40246 13 2.22671 13C2.05097 13 1.90158 12.9358 1.77856 12.8073L1.19859 12.2018C1.07557 12.0734 1.00967 11.9174 1.00088 11.7339C0.992092 11.5505 1.04921 11.3945 1.17223 11.2661L5.25835 7L1.17223 2.73394C1.04921 2.6055 0.992092 2.44954 1.00088 2.26606C1.00967 2.08257 1.07557 1.92661 1.19859 1.79817L1.77856 1.19266C1.90158 1.06422 2.05097 1 2.22671 1C2.40246 1 2.55185 1.06422 2.67487 1.19266L7.7891 6.53211C7.9297 6.66055 8 6.81651 8 7C8 7.18349 7.9297 7.33945 7.7891 7.46789Z" fill="#131415" stroke="#EEE6DD" stroke-width="0.8"/>
</svg>
