<svg width="53" height="58" viewBox="0 0 53 58" fill="none" xmlns="http://www.w3.org/2000/svg">
<g opacity="0.58">
<path fill-rule="evenodd" clip-rule="evenodd" d="M21.4627 21.5526C21.048 20.722 20.469 20.0111 19.8449 19.3314C20.0003 19.2582 20.1156 19.3569 20.2089 19.4424C20.6718 19.8786 21.1997 20.2392 21.6434 20.6842C21.619 20.1056 21.1492 19.7611 20.8356 19.3286C20.806 19.2873 20.7247 19.2385 20.7091 19.2651C20.4047 19.7759 20.0955 19.2091 19.7934 19.2728C19.1559 18.5873 18.4382 17.9896 17.7523 17.3579C16.6806 16.3677 15.5605 15.4174 14.6983 14.2183C14.4093 13.8181 14.1171 13.4247 14.0386 12.914C14.0057 12.6936 13.8533 12.5124 13.715 12.3409C13.6171 12.2181 13.5163 12.1066 13.5157 11.9405C13.5203 11.8889 13.5239 11.8387 13.4901 11.7945L13.4898 11.7908C13.6742 11.574 13.8649 11.732 13.946 11.8548C14.0949 12.0732 14.3329 12.1669 14.5004 12.3503C15.521 13.486 16.4497 14.6973 17.393 15.8966C17.6687 16.2438 17.9535 16.5759 18.2905 16.8658C18.881 17.3731 19.46 17.8919 20.0719 18.4293C20.1786 18.1844 19.9671 18.0176 20.0041 17.8242C20.1435 17.5173 20.044 17.1279 20.3311 16.8729C20.4176 16.8691 20.4991 16.8986 20.5832 16.9104C20.9807 16.9601 21.0955 17.1285 20.8472 17.4215C20.5258 17.8018 20.6742 18.0407 20.9518 18.3123C21.2614 18.6157 21.4212 19.0151 21.6123 19.3924C21.7222 19.8208 21.9605 20.1921 22.1574 20.581C22.2943 20.8535 22.4122 21.1294 22.421 21.4385C22.4232 21.6134 22.5295 21.8189 22.3101 21.9344C22.1256 22.0304 21.9466 21.9596 21.7938 21.8439C21.6753 21.7569 21.5231 21.7074 21.4627 21.5526Z" fill="#446629"/>
<path fill-rule="evenodd" clip-rule="evenodd" d="M23.7599 38.733C22.9904 38.7609 22.2192 38.803 21.4558 38.652C21.5732 38.2038 21.4224 38.0104 20.9344 38.0532C20.649 38.0778 20.4036 38.0956 20.2404 37.8021C20.1774 37.6849 20.0409 37.7109 19.9246 37.6905C19.5272 37.6277 19.1319 37.5498 18.8244 37.2554C18.8104 37.2076 18.8106 37.1613 18.827 37.1157C18.962 36.921 19.139 36.9688 19.319 37.0292C19.5865 37.1204 19.8615 37.1697 20.1463 37.126C20.2747 37.1678 20.404 37.2083 20.5354 37.2488C21.2408 37.5835 21.9325 37.9218 22.7635 37.8554C22.9578 37.8411 22.9418 37.5873 23.1209 37.6789C23.6242 38.0169 24.2205 37.88 24.7705 37.9709C25.0925 38.0244 25.4785 38.0847 25.8184 37.9176C26.1409 37.8265 26.4883 37.8435 26.7913 37.6536C26.9566 37.5512 27.1519 37.6326 27.3343 37.6835C27.4905 37.7281 27.6227 37.8815 27.8461 37.7882C27.7938 37.5918 27.6246 37.5098 27.4824 37.4209C26.6809 36.912 25.8491 36.4558 24.9949 36.0388C24.873 35.9806 24.7559 35.9145 24.6371 35.8509C24.6184 35.6548 24.7754 35.4885 24.7426 35.2889C25.471 35.3663 26.1045 35.6927 26.727 36.0468C26.8824 36.0526 26.9618 36.2381 27.1304 36.217C27.1621 36.2092 27.1866 36.2199 27.2028 36.2485C27.5467 36.6154 28.1169 36.583 28.4555 36.9607C28.4974 36.9821 28.5354 37.0085 28.5707 37.0406C28.8532 37.344 29.1455 37.6313 29.5529 37.7767C29.713 37.8329 29.8546 37.9387 29.9204 38.1126C29.8082 38.4363 29.492 38.1754 29.2946 38.338C29.4303 38.5473 29.6384 38.6402 29.862 38.7107C30.056 38.7718 30.2629 38.8175 30.3081 39.0652C30.2918 39.1767 30.2394 39.2513 30.1243 39.2733C29.8458 39.146 29.5749 38.9977 29.2865 38.8996C28.6115 38.6672 27.9255 38.6095 27.2369 38.8655C27.1271 38.9058 27.008 38.9196 26.8931 38.9453C26.7245 38.9475 26.5629 38.9485 26.3924 38.9204C26.0151 38.8626 25.6154 38.7171 25.3129 39.1653C25.2043 39.3257 24.9228 39.3038 24.7797 39.0992C24.649 38.9107 24.5078 38.7615 24.2692 38.7375L24.2669 38.7359C24.0978 38.6657 23.9294 38.6467 23.7599 38.733Z" fill="#436629"/>
<path fill-rule="evenodd" clip-rule="evenodd" d="M30.1249 39.2724C30.1791 39.1914 30.2325 39.1113 30.2886 39.0295C30.3104 39.028 30.3326 39.0261 30.3568 39.0221C30.5708 39.1365 30.7756 39.271 31.0081 39.3518C31.0507 39.3703 31.0851 39.3996 31.1145 39.4332C31.1287 39.4618 31.1366 39.5033 31.1614 39.5205C31.197 39.5452 31.2107 39.5395 31.1934 39.5164C31.0695 39.3701 31.1791 39.1882 31.1148 39.0319C30.9722 38.7126 30.6727 38.6026 30.3879 38.4674C30.2135 38.386 29.9889 38.3738 29.9093 38.1508C29.6794 38.0273 29.5154 37.7549 29.1956 37.8291C29.0652 37.4502 28.5112 37.4542 28.4516 37.0093C28.4071 37.0596 28.3018 37.1183 28.2929 37.0823C28.2122 36.7268 27.8846 36.7201 27.6407 36.6279C27.4343 36.5506 27.2911 36.4422 27.2039 36.248C27.8589 36.4873 28.4811 36.7829 29.081 37.1505C29.9352 37.6715 30.7366 38.2746 31.6685 38.6796C32.2368 38.9268 32.7297 39.3518 33.2553 39.6977C33.4396 39.8179 33.6105 39.9683 33.8529 39.9478C33.9463 39.7942 33.8108 39.7286 33.7332 39.6555C33.4813 39.4259 33.2112 39.2164 32.9697 38.9768C32.8388 38.8486 32.6757 38.7389 32.6198 38.5455C32.7272 38.3017 32.8918 38.3743 33.0149 38.5048C33.1613 38.6555 33.3272 38.7533 33.5513 38.8241C33.2501 38.5736 33.1209 38.224 32.7336 38.0476C32.3818 37.8881 32.7344 37.7256 32.9011 37.6132C33.6397 38.2877 34.4104 38.9311 35.1057 39.6471C35.7086 40.2704 36.4026 40.7955 36.9577 41.4647C37.1576 41.7053 37.3863 41.9465 37.7426 41.9586C37.763 41.9561 37.7857 41.9524 37.8071 41.9485C37.8519 41.9588 37.8911 41.9784 37.9266 42.0072C37.957 42.0393 37.9833 42.0763 38.0044 42.1179C38.0592 42.2218 38.1029 42.3278 38.0977 42.4483C38.0908 42.4962 38.0764 42.543 38.0585 42.5868C38.0127 42.6757 37.9547 42.7505 37.8741 42.8097C37.782 42.8644 37.6907 42.8691 37.603 42.8027C37.489 42.682 37.4455 42.5159 37.3296 42.396C37.2985 42.3578 37.2727 42.3191 37.2464 42.278C37.075 41.8464 36.7573 41.6295 36.2922 41.6633C36.0066 41.6822 35.8014 41.5621 35.6174 41.3686C35.3817 41.1206 35.1445 40.8728 34.8761 40.6659C35.4626 41.142 35.492 41.9224 35.8639 42.5138C35.1361 42.0486 34.4325 41.5474 33.6936 41.0952C32.998 40.6696 32.2907 40.2767 31.5419 39.9536C31.0588 39.7455 30.6234 39.4435 30.1249 39.2724Z" fill="#5A7E2E"/>
<path fill-rule="evenodd" clip-rule="evenodd" d="M27.882 28.4943C27.8862 28.9951 27.9814 29.4737 28.2202 29.9181C28.26 29.9928 28.3175 30.0688 28.3271 30.1489C28.4264 31.0644 28.9187 31.8392 29.221 32.684C29.3768 33.1222 29.6892 33.4726 29.9319 33.8615C30.111 34.148 30.2935 34.4327 30.4279 34.7429C30.0583 34.8638 29.8344 34.6218 29.6705 34.3743C29.496 34.116 29.2653 33.9518 28.9723 33.7583C29.2669 34.0264 29.3256 34.3916 29.6017 34.6074C29.7087 34.6871 29.7898 34.7961 29.9175 34.8549C30.2314 35.0032 30.2281 35.0079 30.1353 35.3776C30.1112 35.4774 30.227 35.4994 30.2568 35.5714C30.3301 35.7526 30.367 35.9134 30.081 35.9078C29.593 35.4057 29.2351 34.8031 28.8028 34.2557C27.8113 33.0029 26.8357 31.7383 25.8505 30.4815C25.7578 30.3603 25.6508 30.2487 25.5391 30.1448C25.1497 29.7805 24.8314 29.3656 24.6245 28.8712C24.8789 28.8292 24.9895 29.0148 25.1015 29.1812C25.2824 29.4502 25.5092 29.679 25.728 29.9154C25.9865 30.1945 26.2549 30.3335 26.5981 30.0536C26.7822 30.087 26.8717 30.2378 26.9836 30.3605C27.0134 30.3624 27.0305 30.3798 27.0355 30.4096C27.0478 30.5388 27.2116 30.5526 27.235 30.6708C27.3356 30.7897 27.3318 31.0131 27.5458 31.0125C27.7078 31.0098 27.7113 30.8728 27.7107 30.7517C27.4733 29.8014 27.2171 28.8562 27.0058 27.8991C26.8839 27.3562 26.9499 26.7931 26.9516 26.2348C27.2756 26.3915 27.2756 26.3915 27.3948 26.9305C27.5283 26.9059 27.5862 26.7505 27.7218 26.7329C28.2025 26.9027 28.0739 27.3599 28.1796 27.7064C28.1943 27.7562 28.1567 27.8264 28.1129 27.8315C27.5623 27.8906 27.9457 28.2695 27.882 28.4943Z" fill="#54792D"/>
<path fill-rule="evenodd" clip-rule="evenodd" d="M26.9843 30.3603C26.8342 30.2618 26.6818 30.1616 26.5317 30.0631C26.5164 30.0483 26.5006 30.0359 26.4867 30.0221C26.4606 29.9887 26.4375 29.952 26.4161 29.9149C26.4042 29.897 26.3935 29.8785 26.3804 29.8604C26.2749 29.7026 26.1486 29.5657 26.0074 29.4414C25.2641 29.3294 25.0582 28.6437 24.7716 28.1391C24.4541 27.5812 23.9156 27.2098 23.6679 26.6102C23.6405 26.7667 23.8851 26.921 23.649 27.0534C23.2016 27.0786 22.9563 26.6235 22.4925 26.6034C22.0445 26.5846 22.0184 25.9903 21.6768 25.7721C21.6321 25.8486 21.7147 25.9793 21.5748 26.0141C21.5626 26.0167 21.545 26.0101 21.5342 26.0026C21.5226 25.9924 21.5146 25.9758 21.5051 25.9616C21.4543 25.9208 21.4041 25.8763 21.3519 25.8346C21.2358 25.6202 20.9524 25.5859 20.8452 25.3625C20.7659 25.1979 20.646 25.0149 20.788 24.8512C20.9169 24.6993 21.1172 24.7065 21.303 24.7674C21.4128 24.802 21.4845 24.9197 21.6138 24.9151C21.9654 25.0931 22.2441 25.373 22.5655 25.5904C22.7294 25.702 22.9027 25.8 23.1098 25.9263C23.1824 25.6938 23.0803 25.546 23.0079 25.4105C22.6548 24.7509 22.4205 24.04 22.1792 23.3373C21.9715 22.728 21.6502 22.1654 21.46 21.5509C21.5717 21.5909 21.691 21.6168 21.7922 21.6758C22.297 21.9657 22.2961 21.9671 22.4193 21.4375C22.6016 21.7865 22.7123 22.1608 22.8533 22.5263C23.4785 24.1282 24.2224 25.6739 25.062 27.1756C25.6261 28.1868 26.1339 29.231 26.8694 30.1371C26.9211 30.2014 26.9473 30.2876 26.9843 30.3603Z" fill="#577F2F"/>
<path fill-rule="evenodd" clip-rule="evenodd" d="M37.5905 42.7204C37.66 42.7721 37.7315 42.805 37.8192 42.7605C37.934 42.716 37.9894 42.6281 37.9993 42.5068C38.015 42.4781 38.0326 42.4488 38.0483 42.4201C38.1597 42.3955 38.242 42.4699 38.3495 42.5118C38.2658 42.2915 38.0378 42.2353 37.918 42.0752L37.9157 42.0715C37.8836 41.9779 37.8202 41.8944 37.8319 41.7874C37.8396 41.7643 37.8484 41.7406 37.8562 41.7155C37.8929 41.6806 37.9362 41.658 37.9878 41.6466C38.333 41.9727 38.8409 42.0442 39.1669 42.402C39.1059 42.6218 39.0005 42.5279 38.9025 42.4502C39.1605 42.797 39.651 42.8487 39.92 43.1976C40.2934 43.641 40.5366 44.1661 40.816 44.667C41.292 45.5152 41.9576 46.2181 42.5175 47.0024C42.6259 47.1511 42.7765 47.2708 42.8298 47.4569C42.7931 47.4709 42.784 47.4889 42.802 47.509C42.8183 47.5314 42.8418 47.5345 42.8715 47.5177C43.1525 47.8124 43.3625 48.1564 43.5658 48.504C43.7896 48.8742 44.1238 49.1622 44.3511 49.5292L44.3507 49.5268C44.4934 49.865 44.8042 50.1486 44.6898 50.5705C44.4912 50.8079 44.3307 50.6384 44.1745 50.5127C43.7597 50.1799 43.4682 49.7385 43.1757 49.3075C42.8818 48.8755 42.5481 48.5158 42.0494 48.3322L42.0458 48.3262C42.0596 48.2304 41.9618 48.1944 41.9315 48.1242C41.6305 47.8703 41.4398 47.5265 41.1863 47.2342C40.9013 46.8334 40.6837 46.3732 40.1988 46.1576C39.8562 45.8048 39.5136 45.4521 39.172 45.1008C39.178 44.9371 39.0247 44.8933 38.9359 44.8143C38.7426 44.6462 38.819 44.5411 38.9854 44.4361C39.1951 44.4366 39.35 44.5572 39.4443 44.7162C39.8326 45.3641 40.4606 45.7512 41.0234 46.2074C41.2889 46.4214 41.5224 46.6686 41.7082 46.9576C41.8008 47.103 41.9174 47.2268 42.0623 47.3198C42.1232 47.3599 42.1922 47.3703 42.2449 47.3105C42.3001 47.2489 42.2764 47.193 42.2211 47.1359C41.8242 46.7323 41.6484 46.141 41.0672 45.8793C40.7829 45.7514 40.6021 45.4382 40.4286 45.1645C40.3264 45.0049 40.2249 44.8423 40.0455 44.7671C39.4848 44.5308 39.2823 44.047 39.1544 43.5097C39.119 43.5267 39.0893 43.5436 39.0627 43.5709C38.9383 43.7162 38.9807 43.8781 39.0045 44.0416C39.0226 44.1845 39.067 44.3415 38.8947 44.4349C38.4308 44.371 38.0729 44.2212 37.861 43.7199C37.6531 43.2249 37.1629 42.9189 36.7702 42.5564C36.6218 42.4195 36.4294 42.322 36.3674 42.1134C36.3028 41.9007 36.37 41.7608 36.6161 41.8449C36.9036 41.9402 37.1986 42.0318 37.3671 42.3186L37.3685 42.3196C37.4309 42.4606 37.5543 42.5677 37.5905 42.7204Z" fill="#30491F"/>
<path fill-rule="evenodd" clip-rule="evenodd" d="M41.8417 27.0793C41.8929 26.9505 41.9518 26.8256 42.0585 26.7318C42.1729 26.7148 42.395 26.4126 42.3309 26.8529C42.2408 27.4706 42.0464 28.0278 41.5663 28.454C41.4006 28.5991 41.4867 28.8377 41.3675 29.0026C41.2985 29.0151 41.1983 29.0156 41.1778 28.9653C41.0058 28.5444 40.5992 28.7997 40.3195 28.6792C40.1666 28.6127 40.172 28.8918 40.1963 29.0307C40.2639 29.4221 40.2393 29.7185 39.7451 29.8223C39.4609 29.8831 39.4664 30.4319 39.7399 30.6064C39.824 30.6591 39.9335 30.6713 39.9704 30.7849C39.9882 31.0462 39.9145 31.2475 39.6193 31.2952C39.5123 30.7987 39.1244 31.0441 38.845 31.0049C38.9893 30.596 39.0729 30.1625 39.3244 29.7919C39.6991 29.2377 39.9074 28.6035 40.17 27.9979C40.2318 27.8578 40.2962 27.7201 40.3712 27.5869C40.5589 27.2443 40.6836 26.8835 40.7759 26.4975C41.1753 24.8351 41.3678 23.1589 41.2784 21.4514C41.2759 21.4199 41.288 21.3846 41.2922 21.3515C41.6216 21.2555 41.8947 21.4206 41.8884 21.8045C41.8813 22.2836 42.1155 22.7067 42.1327 23.1708C42.2218 23.883 41.9955 24.5532 41.8443 25.2291C41.6948 25.9055 41.6667 26.6119 41.3864 27.26C41.3386 27.3718 41.3338 27.4947 41.4746 27.5646C41.6374 27.5229 41.6893 27.391 41.7234 27.2469C41.7433 27.2191 41.7642 27.192 41.7851 27.1649C41.8275 27.1527 41.8461 27.124 41.8417 27.0793Z" fill="#567D32"/>
<path fill-rule="evenodd" clip-rule="evenodd" d="M32.2937 25.194C32.8861 26.2573 33.4704 27.3254 34.1848 28.3167C34.6513 28.9627 35.0563 29.6485 35.4354 30.3525C35.6283 30.7103 35.7296 31.1071 35.9181 31.466C35.9341 31.511 35.9219 31.5706 35.9791 31.5971L35.9819 31.599C35.6974 31.8503 35.4986 31.6181 35.2773 31.4833C34.4896 31.0063 34.2105 30.2192 33.9588 29.4004C33.8132 28.9285 33.5507 28.5142 33.1615 28.1936C32.4233 27.4534 31.8469 26.605 31.4295 25.6443C31.2492 25.2253 31.0347 24.8199 30.8344 24.4099C30.8301 24.1691 30.8917 23.9594 31.1617 23.915C31.4001 23.8772 31.5356 24.0517 31.6378 24.2321C31.8301 24.5708 32.0432 24.8954 32.2937 25.194Z" fill="#304820"/>
<path fill-rule="evenodd" clip-rule="evenodd" d="M15.3233 24.6461C15.3557 24.6575 15.3802 24.68 15.3948 24.711C15.4159 24.8386 15.5757 24.8531 15.6069 24.9711C16.5519 26.1508 17.5469 27.2895 18.2519 28.6473C18.5939 29.311 19.0096 29.9383 19.4697 30.5306C19.9789 31.157 20.4156 31.833 20.8579 32.5079C20.5866 32.5292 20.737 32.8221 20.5898 32.9273C20.5406 32.9404 20.4903 32.9429 20.4383 32.9318C20.2307 32.8634 20.0623 32.7293 19.8961 32.5939C19.6216 32.2939 19.4337 31.932 19.1965 31.6052C18.7516 31.063 18.4163 30.4608 18.1121 29.8317C17.8098 29.2018 17.3798 28.6471 16.98 28.0779C16.2487 27.0319 15.5708 25.9528 14.9121 24.8622C14.8839 24.471 15.1078 24.566 15.3233 24.6461Z" fill="#45682A"/>
<path fill-rule="evenodd" clip-rule="evenodd" d="M24.2714 38.7362C24.4385 38.6622 24.5945 38.7981 24.7629 38.7624C24.8378 38.7464 24.896 38.8193 24.8735 38.8897C24.7791 39.1959 24.99 39.1328 25.153 39.1286C25.1955 39.1283 25.2397 39.1395 25.2715 39.0867C25.4696 38.7602 25.4945 38.8323 25.7433 38.7504C26.1828 38.6087 26.5155 38.8637 26.8953 38.944C25.8674 39.2774 24.9571 39.856 24.0271 40.378C23.191 40.8457 22.3118 41.0257 21.3947 41.0782C20.7845 41.1132 20.1735 41.0264 19.5816 40.8572C19.2055 40.6657 18.7821 40.6022 18.404 40.4156C18.3002 40.3644 18.1417 40.339 18.1502 40.2097C18.1625 40.022 18.3581 40.0918 18.4736 40.0534L18.4707 40.0534C18.8355 40.1594 19.2059 40.1432 19.578 40.0976C20.2513 40.1665 20.9217 40.2377 21.6026 40.2086C21.9498 40.1929 22.2801 40.1467 22.5862 40.0012C23.1516 39.7319 23.7084 39.451 24.2608 39.1574C24.5311 39.0106 24.5207 38.9917 24.2714 38.7362Z" fill="#608237"/>
<path fill-rule="evenodd" clip-rule="evenodd" d="M26.5291 14.4358C26.6248 14.5437 26.6288 14.6859 26.6778 14.8122C26.7158 14.9064 26.7359 15.0223 26.8551 15.0384C27.0036 15.0582 27.0701 14.9365 27.1156 14.8329C27.2698 14.4746 27.4544 14.1255 27.5171 13.7371C27.6512 12.912 27.758 12.0833 27.7965 11.2489C27.8128 10.8885 27.7655 10.5339 27.6587 10.188C27.5128 9.73045 27.4826 9.25322 27.433 8.7799C27.4191 8.64198 27.4239 8.48512 27.59 8.44361C27.7591 8.40073 27.8331 8.54291 27.8781 8.67192C28.0915 9.263 28.273 9.85414 28.3664 10.4882C28.5168 11.505 28.5238 12.5236 28.571 13.5423C28.571 13.5763 28.5614 13.6092 28.5565 13.6432C28.3351 13.8384 28.3351 13.8384 28.0263 13.4509C27.9427 13.9393 28.3749 14.2488 28.4582 14.6796C28.3672 15.2946 28.1527 15.8719 27.9767 16.4626C27.111 16.5521 26.9867 16.4943 26.7763 15.9108C26.7147 15.7398 26.6708 15.5832 26.8821 15.4864C27.1901 15.4552 27.294 15.9773 27.7079 15.7554C27.4275 15.5838 27.1581 15.4774 26.845 15.4869C26.4047 15.235 26.3018 14.8904 26.5291 14.4358Z" fill="#7E9F4B"/>
<path fill-rule="evenodd" clip-rule="evenodd" d="M33.3521 17.7064C33.696 18.4671 34.0454 19.226 34.3809 19.9899C34.5044 20.2697 34.631 20.5572 34.696 20.8533C34.9044 21.8174 35.3542 22.6744 35.7965 23.5414C36.0749 24.0868 36.3277 24.649 36.4868 25.2433C36.5858 25.5304 37.0342 25.7117 36.7423 26.1126C36.4497 26.1815 36.3537 26.4879 36.122 26.6309C35.7845 25.3602 35.1963 24.1867 34.7126 22.9747C34.3559 22.0735 34.0211 21.1645 33.7219 20.2442C33.5739 19.7928 33.4079 19.3455 33.2311 18.9046C33.1038 18.5882 33.0013 18.2681 32.9822 17.9248C33.0495 17.5548 33.0965 17.5271 33.3521 17.7064Z" fill="#52782D"/>
<path fill-rule="evenodd" clip-rule="evenodd" d="M19.1975 31.6045C19.5308 31.8377 19.7629 32.1589 19.9706 32.4992C19.9785 32.5519 19.9608 32.5923 19.9157 32.6213C19.5552 32.7762 19.3053 32.5356 19.023 32.3828C18.7851 32.2539 18.5948 32.0366 18.2305 32.1819C18.026 32.2627 17.7304 32.0181 17.4554 31.9987C17.0736 31.7435 16.7304 31.4355 16.3434 31.1837C16.0912 31.0185 15.8615 30.7988 15.795 30.4719C15.7663 30.3272 15.6783 30.2232 15.5508 30.1611C14.9491 29.863 14.5798 29.3197 14.1457 28.8419C13.5282 28.1626 12.919 27.4744 12.3786 26.73C12.4558 26.3988 12.7044 26.4582 12.8786 26.572C13.1387 26.7448 13.4512 26.843 13.6542 27.1003C13.6809 27.1077 13.6959 27.1271 13.7001 27.155C13.5078 27.3343 13.5193 27.4686 13.7563 27.6128C14.4334 28.0242 14.8839 28.6813 15.4563 29.2066C15.7057 29.4378 16.067 29.4998 16.2696 29.7895C16.8486 30.1494 17.3092 30.654 17.8341 31.0818C18.176 31.3606 18.5405 31.6079 18.8952 31.8684C18.9867 31.9374 19.0973 32.0447 19.2119 31.9675C19.3774 31.8569 19.1626 31.7287 19.1975 31.6045Z" fill="#557C2F"/>
<path fill-rule="evenodd" clip-rule="evenodd" d="M20.3237 16.8915C20.265 17.1691 20.206 17.4471 20.1487 17.7236C20.1315 17.8025 20.0768 17.8283 20.0032 17.8244C19.9732 17.8036 19.9642 17.7787 19.9748 17.7444C19.9556 17.7082 19.9438 17.6681 19.9384 17.6269L19.938 17.6246C19.9256 17.5744 19.9305 17.5174 19.8759 17.4872L19.8775 17.4939C19.8677 17.1591 19.6825 16.8892 19.5468 16.6009C18.7752 15.0062 17.8048 13.5302 16.8405 12.0494C16.4144 11.394 15.9863 10.7386 15.5598 10.0829C15.4855 9.9371 15.5376 9.85602 15.6928 9.84923C15.9323 9.83784 16.1587 9.87427 16.2998 10.1067L16.2985 10.1036C16.4946 10.5677 16.9207 10.8521 17.2019 11.2524C17.5875 11.8041 17.8785 12.4282 18.3677 12.9076C18.511 13.0299 18.5947 13.1891 18.649 13.3648C18.6792 13.5251 18.7955 13.6363 18.8753 13.7672L18.8735 13.766C18.8788 13.8522 18.965 13.8919 18.9902 13.9676L18.9869 13.9653C19.0385 14.2348 19.1857 14.4444 19.3814 14.6272C19.6276 15.0899 19.8665 15.5572 20.0412 16.0521C20.155 16.3259 20.4686 16.5316 20.3237 16.8915Z" fill="#3B5825"/>
<path fill-rule="evenodd" clip-rule="evenodd" d="M41.3607 28.998C41.3283 28.6968 41.2542 28.3978 41.6485 28.2303C41.7595 28.1811 41.7641 27.9146 41.8785 27.8316C42.1504 27.6395 42.158 27.3487 42.1172 27.1096C42.0851 26.9099 42.3106 26.8798 42.2653 26.7221C42.1914 26.7257 42.1261 26.7289 42.059 26.7316C42.1878 26.3009 42.4465 25.9319 42.6811 25.5607C43.6563 24.0148 44.1641 22.318 44.3955 20.5217C44.4101 20.4057 44.4091 20.2822 44.4909 20.1843C44.7323 20.2991 44.6417 20.5268 44.6668 20.7134C44.6862 20.8434 44.643 21.0006 44.8006 21.0683C44.9767 21.1433 45.0201 20.9549 45.1181 20.8815C45.1848 20.8314 45.2456 20.7737 45.3368 20.7711C45.2162 21.4889 45.0932 22.199 44.7496 22.8614C44.4469 23.4488 44.2419 24.0812 43.9504 24.6785C43.5667 25.4586 43.1238 26.1991 42.6747 26.9416C42.2544 27.6375 41.8493 28.3425 41.436 29.0453C41.4196 29.045 41.4022 29.0461 41.384 29.0474C41.3751 29.0302 41.3691 29.0149 41.3607 28.998Z" fill="#749844"/>
<path fill-rule="evenodd" clip-rule="evenodd" d="M27.4189 19.0715C27.489 19.4952 27.4472 19.9204 27.3923 20.3365C27.2398 21.49 27.3812 22.6267 27.529 23.7672C26.941 23.8552 26.8603 23.7826 26.9065 23.1961C26.9359 22.8469 26.6708 22.7573 26.4333 22.6418C26.2917 22.2781 26.2374 21.8916 26.1966 21.5104C26.1292 20.8549 25.9883 20.2183 25.8099 19.5857C25.8079 19.5337 25.8071 19.4839 25.7714 19.4404L25.7698 19.4427C25.8827 19.182 26.111 19.3216 26.3466 19.2867C25.859 18.9582 25.8993 18.6221 26.2926 18.2861C26.3161 18.2442 26.3507 18.2113 26.3932 18.186C26.6692 18.1209 26.8279 18.378 27.0629 18.428C27.2642 18.5357 27.3953 18.6946 27.4157 18.9292L27.4148 18.9265C27.3913 18.9754 27.4142 19.0232 27.4189 19.0715Z" fill="#54782C"/>
<path fill-rule="evenodd" clip-rule="evenodd" d="M30.0829 35.9069C30.2615 35.8124 30.2992 35.697 30.1256 35.5614C30.05 35.5034 29.9192 35.518 29.8963 35.3891C29.883 35.3064 29.8404 35.2089 29.9171 35.1512C30.0173 35.0757 30.0554 35.1868 30.1115 35.2409C30.1495 35.277 29.6919 35.022 29.7522 34.9522C29.715 34.7968 30.0803 34.9669 29.9367 34.988C29.7398 35.015 29.6931 34.8814 29.5773 34.7914C29.2458 34.5406 29.208 34.0713 28.8385 33.8532C28.7882 33.8238 28.7809 33.7002 28.7753 33.6173C28.7718 33.5774 28.8045 33.5113 28.8394 33.4981C28.8748 33.481 28.9574 33.4988 28.9736 33.5274C29.169 33.8855 29.6536 33.9366 29.8124 34.3595C29.8986 34.585 30.1747 34.6919 30.4294 34.7445C30.5126 34.8285 30.6047 34.9056 30.674 34.9987C31.3014 35.8596 32.0451 36.6188 32.7557 37.4057C32.812 37.4676 32.8526 37.545 32.9007 37.6137C32.8939 37.6464 32.8976 37.6851 32.881 37.711C32.7214 37.972 32.7229 37.9799 33.0207 38.0194C33.1368 38.034 33.2262 38.0711 33.2537 38.1754C33.3368 38.4855 33.5418 38.6956 33.8163 38.8728C33.451 38.9946 33.1296 38.9131 32.9861 38.6361C32.883 38.4329 32.7693 38.4649 32.6198 38.5464C32.4818 38.4735 32.389 38.3564 32.2913 38.2374C31.851 37.7004 31.3521 37.2281 30.7928 36.8118C30.4799 36.5781 30.2598 36.2556 30.0829 35.9069Z" fill="#426428"/>
<path fill-rule="evenodd" clip-rule="evenodd" d="M36.8392 25.1068C36.7201 24.3627 36.7996 23.6093 36.7592 22.8608C36.6537 20.9294 36.4092 19.0236 35.8928 17.1559C35.8077 16.8459 35.6329 16.527 35.7917 16.1282C36.1268 16.3627 36.21 16.6936 36.302 17.0119C36.4575 17.5705 36.5537 18.1496 36.7519 18.6906C37.1735 19.8332 37.1805 21.0348 37.3234 22.2163C37.4247 23.061 37.4906 23.9097 37.573 24.7566C37.594 24.9293 37.4501 25.0237 37.376 25.1456C37.184 25.4624 36.9961 25.4264 36.8392 25.1068Z" fill="#4F742C"/>
<path fill-rule="evenodd" clip-rule="evenodd" d="M33.1605 28.193C33.6272 28.3489 33.7479 28.7925 33.951 29.1636C34.0482 29.3364 34.0557 29.5565 34.2486 29.6772C34.3407 29.7334 34.3822 29.8135 34.3572 29.9335C34.2734 30.3482 34.5307 30.6002 34.7866 30.872C34.9739 31.0698 35.2246 31.1813 35.3858 31.4117C35.5191 31.5985 35.7519 31.6296 35.9809 31.5984C36.0936 31.8458 36.2062 32.0924 36.3208 32.339C36.312 32.3897 36.2829 32.4236 36.234 32.4411C36.1075 32.4566 35.9916 32.4047 35.9262 32.3101C35.711 31.9875 35.3924 31.876 35.0329 31.8375C34.8063 31.6803 34.6647 31.4427 34.4833 31.2433C33.912 30.6114 33.1894 30.1497 32.5863 29.5526C32.4962 29.4637 32.3725 29.459 32.2592 29.4255C31.9374 29.3306 31.6637 29.1463 31.4915 28.8667C31.1884 28.37 30.7756 27.9665 30.422 27.5126C30.4035 27.4263 30.3203 27.3852 30.281 27.315C30.2541 27.3018 30.2376 27.2807 30.234 27.2518C30.4678 26.8808 30.6594 27.1323 30.8544 27.296C31.6924 27.9902 32.5105 28.7102 33.3966 29.3441C33.526 29.4374 33.6783 29.6526 33.8235 29.5293C34.0006 29.3769 33.7907 29.1897 33.7073 29.0431C33.5415 28.7513 33.3427 28.4761 33.1605 28.193Z" fill="#44672A"/>
<path fill-rule="evenodd" clip-rule="evenodd" d="M24.7458 35.2879C24.907 35.4164 25.0343 35.5407 24.7702 35.6966C24.7143 35.7293 24.6834 35.7987 24.6403 35.8499C24.3421 35.8109 24.0706 35.6566 23.7573 35.6674C23.5948 35.6718 23.4371 35.5583 23.3053 35.4503C22.7735 35.0114 22.1407 34.863 21.4769 34.7964C20.8957 34.7796 20.3963 34.5899 20.0345 34.1128C19.9941 33.9302 19.9208 33.774 19.7337 33.6969C19.6787 33.6511 19.6383 33.5954 19.6264 33.5226C20.086 33.3477 20.49 32.9623 21.0462 33.1351C21.4484 33.141 21.7636 33.3804 22.0462 33.6007C22.396 33.8752 22.8962 33.9468 23.1178 34.3911C23.1343 34.4233 23.2131 34.4156 23.2644 34.4116C23.7715 34.6843 24.193 35.0972 24.7458 35.2879Z" fill="#385122"/>
<path fill-rule="evenodd" clip-rule="evenodd" d="M26.33 18.3165C26.5031 18.5308 26.4285 18.6164 26.1788 18.6165C26.0005 18.6177 25.9411 18.7852 26.0666 18.8272C26.3707 18.9306 26.3007 19.3175 26.7146 19.4015C26.3119 19.5402 26.0317 19.2613 25.7686 19.4428C24.9639 17.5159 23.8607 15.7294 23.0546 13.8036C23.0101 13.6938 22.9343 13.5961 22.9489 13.4682C23.0088 13.0688 23.2291 12.9782 23.5817 13.1416C23.8789 13.4969 23.9302 13.9547 24.09 14.3672C23.9794 14.6205 23.843 14.2694 23.6923 14.4117C24.2398 14.607 24.5827 15.0084 24.8661 15.4726C24.9017 15.5313 24.8444 15.4819 24.8992 15.5088C25.2794 15.6934 24.8135 16.1962 25.1725 16.3204C25.6096 16.473 25.4854 16.7731 25.464 17.0598C25.4442 17.3082 25.6431 17.3124 25.7868 17.3781C26.0283 17.4888 26.1461 17.68 26.1596 17.9383C26.1725 18.1927 25.9348 18.1915 25.7851 18.2894C25.9695 18.3174 26.1614 18.1018 26.33 18.3165Z" fill="#698B3A"/>
<path fill-rule="evenodd" clip-rule="evenodd" d="M20.3222 16.8916C20.2736 16.5978 20.0475 16.362 20.0414 16.0519C20.1088 16.0987 20.1753 16.1448 20.2895 16.224C20.3835 15.9106 20.401 15.6094 20.3861 15.2981C20.3713 14.9654 20.2653 14.6374 20.3322 14.301C20.7151 14.4328 20.8632 14.0453 21.139 13.9405C21.3667 14.538 21.3656 15.1794 21.4921 15.7968C21.5983 16.3136 21.6278 16.8187 21.5174 17.3579C21.3823 18.0255 21.6273 18.71 21.6103 19.3923C21.5415 19.3425 21.4361 19.3075 21.4114 19.2411C21.1798 18.6374 20.6478 18.2518 20.3335 17.6961C20.3731 17.5051 20.6732 17.7771 20.6703 17.5435C20.6674 17.3716 20.7569 17.3186 20.8663 17.2329C20.9341 17.1801 20.7454 16.9493 20.71 17.0004C20.4603 17.3604 20.4582 16.8875 20.3222 16.8916Z" fill="#719540"/>
<path fill-rule="evenodd" clip-rule="evenodd" d="M26.5301 14.4351C26.5179 14.8357 26.5026 15.2356 26.916 15.4814L26.9155 15.479C26.6712 15.8164 27.0272 16.0218 27.1097 16.2808C27.183 16.507 27.4361 16.3941 27.6005 16.384C27.745 16.3726 27.886 16.2562 27.9783 16.463L27.9757 16.4709C27.9123 16.7591 27.663 16.7027 27.4683 16.7444C27.2898 16.7829 27.1075 16.7168 26.9271 16.7539C26.8269 16.7745 26.777 16.5326 26.6377 16.7134C26.4831 16.9133 26.3083 16.8163 26.147 16.703C26.1278 16.6897 26.1082 16.6761 26.089 16.6628C26.0178 16.1946 25.9288 15.7321 25.9562 15.2477C25.9733 14.9691 25.8653 14.6799 25.7928 14.4015C25.4772 13.182 25.1848 11.9571 24.7521 10.7715C24.7213 10.6919 24.6889 10.6126 24.6728 10.53C24.661 10.465 24.6623 10.391 24.739 10.3555C24.8089 10.3228 24.8738 10.3471 24.929 10.3874C25.1242 10.538 25.2368 10.7534 25.3332 10.9694C25.5343 11.4202 25.7623 11.8612 25.9054 12.3349C26.1161 13.0337 26.3224 13.7349 26.5301 14.4351Z" fill="#5D8536"/>
<path fill-rule="evenodd" clip-rule="evenodd" d="M37.7212 30.8374C37.7722 31.1918 37.8225 31.5471 37.8724 31.902C37.8952 32.0572 37.8644 32.1925 37.7954 32.3409C37.6914 32.5669 37.6371 32.7741 38.05 32.7116C38.279 32.6764 38.46 33.1562 38.2974 33.4546C38.1101 33.7996 37.8942 34.1228 37.831 34.52C37.8075 34.6597 37.6819 34.705 37.5505 34.6755C37.3793 34.6344 37.2658 34.7721 37.1177 34.7956C36.9072 34.6572 37.0496 34.4939 37.0847 34.3373C37.2633 34.1179 37.0325 33.6229 37.5572 33.6381C37.514 33.4534 37.4472 33.2788 37.2949 33.1565C37.1994 33.0792 37.0697 33.0794 36.9658 33.0192C36.8705 32.9607 36.8035 32.8823 36.8325 32.7665C36.8728 32.6135 36.974 32.5575 37.1342 32.6104C37.0118 32.522 36.8841 32.4272 36.7783 32.3108C36.5889 32.108 36.7981 31.9043 36.7736 31.6987C36.7522 31.5217 36.8223 31.3366 36.7294 31.1647L36.7318 31.1642C36.7434 31.1175 36.755 31.0708 36.7658 31.0242C36.8432 30.6557 36.8101 30.2936 36.7595 29.9187C36.639 29.0357 36.5178 28.1528 36.3872 27.2704C36.4107 27.1695 36.4638 27.0919 36.5626 27.0474C36.9559 27.0713 36.8588 27.4942 37.0725 27.6778C37.2664 27.8462 37.4983 28.0598 37.1906 28.3574C37.067 28.4756 37.2262 28.563 37.2947 28.6501C37.4043 28.792 37.5965 28.9308 37.294 29.074C37.231 29.1038 37.3045 29.0999 37.3124 29.1075C37.5813 29.4466 37.7762 29.8154 37.5206 30.2359C37.334 30.5439 37.5469 30.6729 37.7212 30.8374Z" fill="#355021"/>
<path fill-rule="evenodd" clip-rule="evenodd" d="M20.0916 33.9549C20.2941 34.3138 20.6438 34.4794 20.9972 34.6378C21.1519 34.7056 21.317 34.7445 21.4782 34.796C20.8457 34.9092 20.2722 34.7043 19.7207 34.4368C19.4138 34.2864 19.1104 34.166 18.7662 34.1104C18.3153 34.0347 17.8863 33.8634 17.4795 33.6422C16.4958 33.109 15.4962 32.6099 14.412 32.3065C14.2315 32.2569 14.0503 32.2082 13.92 32.0561C14.0271 31.8288 14.2017 31.9478 14.3504 31.9795C14.5089 32.0118 14.6613 32.0911 14.8255 32.0282C14.6119 31.8294 14.3275 31.7015 14.2442 31.3858C14.4622 31.4074 14.612 31.5584 14.7806 31.6691C15.8169 32.3504 16.9755 32.7484 18.1445 33.1182C18.3062 33.168 18.4849 33.2073 18.6487 33.185C18.8799 33.1567 18.721 33.0279 18.6739 32.9369C18.6852 32.8865 18.7196 32.859 18.7728 32.8543C19.3157 32.9182 19.2263 33.429 19.4018 33.7809C19.3159 33.5008 19.3756 33.4028 19.6443 33.5212C19.6979 33.5619 19.7517 33.6013 19.8062 33.6426C19.8489 33.7921 20.0692 33.7833 20.0916 33.9549Z" fill="#527834"/>
<path fill-rule="evenodd" clip-rule="evenodd" d="M36.8387 25.1071C37.1294 25.2727 37.1386 25.2756 37.2558 24.9706C37.317 24.8134 37.5131 24.8946 37.572 24.7566C37.739 24.8627 37.7745 24.7216 37.8222 24.6188C38.0706 24.0957 38.1972 23.5372 38.2817 22.9697C38.2913 22.9028 38.3109 22.8395 38.3262 22.7725C38.537 22.7266 38.6834 22.8503 38.8272 22.9729C38.8555 23.505 38.755 24.0198 38.6162 24.5247C38.3361 25.5404 38.1464 26.5716 37.9668 27.6064C37.8446 28.3114 37.7986 29.0186 37.7384 29.7272C37.4891 29.6707 37.3418 29.5762 37.4634 29.2729C37.6159 28.894 37.2661 28.5557 37.3718 28.1423C37.5215 27.5527 37.5102 26.9471 37.3571 26.332C37.2791 26.0137 37.5696 25.8408 37.8643 25.7887C37.5273 25.4869 37.1785 25.5619 37.0454 26.0007C36.967 26.2688 36.8539 26.3637 36.648 26.0968C36.7214 25.984 36.7956 25.883 36.6826 25.7401C36.569 25.5989 36.4521 25.4485 36.4873 25.2448C36.7147 25.4808 36.7645 25.263 36.8387 25.1071Z" fill="#678B3D"/>
<path fill-rule="evenodd" clip-rule="evenodd" d="M17.2918 21.792C18.2012 22.6682 19.3069 23.2743 20.3274 23.9973C20.5072 24.1241 20.6822 24.2566 20.8598 24.3894C20.9625 24.6382 20.8034 24.7047 20.6101 24.7495C19.9832 24.4707 19.4668 23.9926 18.8445 23.8231C19.1447 24.0971 19.5398 24.3691 19.8381 24.7438C19.8498 24.7949 19.8318 24.8358 19.7845 24.8591C19.3653 24.6398 18.9437 24.4209 18.5707 24.1268C18.3096 23.9215 17.9935 23.8513 17.6931 23.7386C17.1404 23.5328 16.5787 23.3429 16.1135 22.9579C16.3051 22.3758 16.3051 22.3758 16.9883 22.6354C17.0616 22.6766 17.127 22.7504 17.2181 22.738C17.7061 22.6771 17.8477 22.9299 17.7542 23.4606C18.023 23.0931 17.9222 22.8664 17.6306 22.8001C17.1617 22.6953 17.0647 22.1774 16.6592 22.0112C16.5417 21.9637 16.5991 21.8379 16.7073 21.7769C16.9048 21.6671 17.0996 21.6982 17.2918 21.792Z" fill="#5A8034"/>
<path fill-rule="evenodd" clip-rule="evenodd" d="M37.7524 35.841C37.7339 36.5875 37.7231 37.3247 37.9926 38.0469C38.1141 38.3725 38.102 38.7468 38.1525 39.098C38.0859 39.133 38.0284 39.1139 37.973 39.0769C37.9389 39.0511 37.9113 39.0188 37.8888 38.9824C37.8643 38.9467 37.8456 38.9087 37.8279 38.8702C37.8098 38.8313 37.7991 38.7898 37.7908 38.7467C37.7839 38.6607 37.7775 38.573 37.7502 38.4903C37.6347 38.205 37.7442 37.8732 37.5194 37.5516C37.5823 37.8497 37.7188 38.0969 37.4581 38.3217C37.3186 38.4399 37.388 38.6427 37.4154 38.8101C37.4883 39.2808 37.6494 39.7323 37.6964 40.2094C37.7149 40.3977 37.7693 40.5762 37.6616 40.7504C37.6278 40.7872 37.5858 40.8108 37.5363 40.8181C37.4015 40.5436 37.3291 40.2431 37.3046 39.9466C37.2693 39.5207 37.1609 39.1141 37.0552 38.7066C36.9323 38.233 36.7762 37.7683 36.6353 37.3017C36.4068 36.7813 36.3343 36.245 36.4575 35.6855C36.6935 35.6211 36.9125 35.5504 36.9328 35.2462C36.9415 35.1087 37.0461 35.0398 37.1808 35.0466C37.3126 35.0534 37.4067 35.1298 37.4359 35.2575C37.4778 35.4391 37.4944 35.6281 37.6788 35.7352C37.7172 35.7598 37.7412 35.7951 37.7524 35.841Z" fill="#406328"/>
<path fill-rule="evenodd" clip-rule="evenodd" d="M38.8257 22.972C38.6002 23.0513 38.4855 22.8567 38.3248 22.7715C38.3741 22.2475 38.4144 21.7236 38.4773 21.2C38.5646 20.4874 38.5523 19.7743 38.5114 19.0575C38.461 18.2084 38.436 17.3577 38.3014 16.5161C38.5935 16.2889 38.6689 16.579 38.8058 16.7245C39.0344 17.5106 39.1044 18.3115 39.1045 19.1311C39.1022 20.336 38.988 21.5313 38.8751 22.7268C38.8668 22.8098 38.8432 22.8898 38.8257 22.972Z" fill="#4D6D2C"/>
<path fill-rule="evenodd" clip-rule="evenodd" d="M36.6499 26.095C36.9798 26.1602 37.0043 26.1509 36.9342 25.8811C36.8716 25.6435 36.8007 25.4508 37.1764 25.5629C37.2792 25.5927 37.3768 25.5529 37.4558 25.478C37.5857 25.3587 37.7472 25.4278 37.8334 25.4945C37.9618 25.5932 38.1332 25.778 38.1126 25.8976C38.0767 26.1084 37.9455 25.8586 37.8402 25.8785C37.5667 25.928 37.3993 26.2113 37.521 26.4676C37.5989 26.6312 37.6202 26.7875 37.5911 26.9614C37.5686 27.0928 37.5334 27.2306 37.6024 27.361C37.705 27.557 37.8652 27.7618 37.4912 27.8511C37.467 27.8551 37.431 27.9189 37.4341 27.9225C37.6766 28.1697 37.2716 28.4997 37.5518 28.7675C37.643 28.855 37.6932 29.0895 37.5748 29.2452C37.3841 29.4992 37.5675 29.6056 37.7398 29.7251C37.7828 30.0961 37.7424 30.4661 37.7227 30.8365C37.6449 30.7937 37.5629 30.8069 37.4788 30.8032C37.2162 30.7889 37.134 30.6585 37.2988 30.4579C37.4569 30.2639 37.3763 29.9993 37.5484 29.8302C37.6324 29.747 37.5503 29.7185 37.5029 29.6877C37.3788 29.6058 37.3238 29.5142 37.3584 29.3483C37.4129 29.0997 37.0359 29.1814 37.0314 28.946C37.1063 28.853 37.1626 28.9767 37.2316 28.9753C37.2638 28.9748 37.3051 28.9833 37.3259 28.9672C37.3685 28.9329 37.37 28.8758 37.3339 28.8368C37.2883 28.7886 37.2276 28.7521 37.1769 28.7072C36.8174 28.3808 36.8211 28.3585 37.2965 28.1189C37.0139 27.7946 36.7588 27.4575 36.6018 27.0622C36.436 27.0922 36.2931 27.0534 36.1813 26.9197L36.1836 26.9233C36.2034 26.8657 36.1935 26.8151 36.1569 26.7689L36.1579 26.7793C36.1767 26.7223 36.1713 26.6701 36.1258 26.6288L36.1234 26.6292C36.1603 26.555 36.239 26.4736 36.2274 26.4073C36.1665 26.0142 36.4427 26.1059 36.6499 26.095Z" fill="#456B2B"/>
<path fill-rule="evenodd" clip-rule="evenodd" d="M37.752 35.8407C37.7214 35.825 37.6933 35.8055 37.6652 35.786C37.5707 35.7094 37.4841 35.5772 37.5042 35.4913C37.5844 35.1267 37.3282 34.9713 37.1204 34.78C37.3607 34.4606 37.3607 34.4606 37.7174 34.5811C37.7679 34.1793 37.8485 33.8053 38.1635 33.4961C38.3616 33.3014 38.1772 33.0265 38.1617 32.8028C38.0378 32.7585 38.0074 32.8144 37.9881 32.8821C37.9329 33.0567 37.834 33.0464 37.7319 32.9326C37.5288 32.7106 37.5133 32.453 37.7184 32.2104C37.8008 32.1115 37.8184 32.0031 37.8733 31.9011C37.9838 32.0096 37.9481 32.204 38.1408 32.3071C38.5139 31.9551 38.6413 31.4575 38.8448 31.0051C38.9368 30.9185 38.9944 30.7865 39.1716 30.84C39.3462 30.8911 39.5304 30.9044 39.7108 30.9352C39.7286 31.0696 39.6152 31.1421 39.568 31.2432C39.6035 31.7788 39.1333 32.0837 38.9763 32.533C38.95 32.609 38.8781 32.6667 38.8719 32.7546C38.5694 33.5606 38.1158 34.3055 37.9372 35.1579C37.8869 35.3893 37.8128 35.6152 37.752 35.8407Z" fill="#44672A"/>
<path fill-rule="evenodd" clip-rule="evenodd" d="M17.293 21.7923C17.0965 21.8336 16.8844 21.7766 16.6462 21.9151C16.9581 22.0032 17.1597 22.1693 17.2646 22.455C17.3173 22.599 17.4678 22.6958 17.6272 22.703C17.9088 22.7139 18.072 22.8645 18.0981 23.1218C18.1228 23.3671 17.9873 23.4694 17.5527 23.5902C17.6038 23.4335 17.6604 23.3029 17.6864 23.1684C17.7291 22.947 17.5173 22.7155 17.3949 22.8289C17.0853 23.1134 17.0494 22.8362 16.944 22.6632C16.7784 22.3861 16.291 22.4801 16.2531 22.0578C15.7517 21.3592 15.1966 20.703 14.6323 20.0551C14.6136 19.972 14.5383 19.9296 14.4938 19.8668L14.4937 19.8709C14.3693 19.4754 13.9544 19.3388 13.7336 19.0213C13.6125 18.8451 13.4959 18.7073 13.6805 18.5531C13.8512 18.406 14.0205 18.5248 14.0847 18.6962C14.1873 18.965 14.5431 18.8221 14.6418 19.0826C14.9538 19.9154 15.7409 20.3012 16.3406 20.8621C16.7135 21.1172 17.0336 21.4245 17.293 21.7923Z" fill="#476D2B"/>
<path fill-rule="evenodd" clip-rule="evenodd" d="M39.0001 44.4559C38.9642 44.5496 38.8349 44.6221 38.9761 44.7464C39.0745 44.8355 39.2233 44.9199 39.1755 45.1017C38.6427 44.6323 38.0549 44.2281 37.5133 43.7734C36.9794 43.3275 36.3977 42.9525 35.8626 42.5134C35.8434 42.4661 35.8377 42.3942 35.8028 42.3776C35.4075 42.1727 35.3225 41.7955 35.2528 41.4101C35.2171 41.2086 35.1925 41.0162 34.9531 40.9215C34.8781 40.8937 34.8587 40.7277 34.8349 40.5961C35.1034 40.7768 35.3936 40.9102 35.6112 41.1783C35.7937 41.4081 35.999 41.5769 36.3757 41.5296C36.9106 41.4652 37.249 41.7921 37.3711 42.3199C37.1437 42.0359 36.7301 42.1603 36.4513 41.8685C36.4328 42.2251 36.6768 42.3341 36.8719 42.4618C37.0351 42.5694 37.2557 42.5942 37.2633 42.8671C37.2661 42.9841 37.4133 43.0258 37.5066 43.0982C37.7586 43.2938 38.1203 43.4351 38.0294 43.872C38.0099 43.9681 38.0608 44.0727 38.1404 44.0738C38.453 44.0701 38.6239 44.3905 38.9254 44.3977C38.9579 44.3919 38.9792 44.3991 38.9901 44.4184C39.001 44.4356 39.0037 44.4507 39.0001 44.4559Z" fill="#476D2B"/>
<path fill-rule="evenodd" clip-rule="evenodd" d="M37.1205 34.7802C37.2071 34.8403 37.3041 34.8375 37.4043 34.8509C37.5723 34.8696 37.725 35.0733 37.6673 35.1366C37.4416 35.376 37.7291 35.5753 37.6661 35.7861C37.6232 35.8319 37.5338 35.9038 37.5141 35.8353C37.4605 35.6546 37.2518 35.5286 37.3373 35.2884C37.3761 35.1835 37.2597 35.1174 37.1435 35.122C37.0252 35.1266 37.0303 35.2092 37.0231 35.2986C36.9902 35.7278 36.9292 35.7708 36.4753 35.7105C36.4016 35.7308 36.3805 35.7071 36.4081 35.6375C36.3919 35.4148 36.3745 35.194 36.357 34.9724C36.3334 34.9374 36.3263 34.9006 36.3382 34.8595L36.3364 34.8341C36.5071 34.483 36.3377 34.1734 36.1816 33.8876C35.9889 33.5335 35.7945 33.1761 35.5629 32.8442C35.435 32.4837 35.2379 32.1591 35.0336 31.8378C35.3985 31.6596 35.6744 31.7996 35.8904 32.093C35.9921 32.2294 36.1038 32.3443 36.2468 32.431C36.2556 32.4523 36.2651 32.4735 36.2753 32.4958C36.2823 32.7517 36.3899 32.9934 36.6036 33.0932C37.0697 33.3089 37.1807 33.6688 37.149 34.1274C37.1448 34.1903 37.1902 34.2558 37.1787 34.3254C37.1883 34.4805 37.05 34.6169 37.1205 34.7802Z" fill="#30481F"/>
<path fill-rule="evenodd" clip-rule="evenodd" d="M32.2917 25.1935C31.9803 25.0267 31.7862 24.7507 31.6151 24.4566C31.5649 24.367 31.5251 24.2714 31.4654 24.1905C31.2627 23.905 31.0872 23.9261 30.9474 24.2646C30.9189 24.3357 30.8888 24.3751 30.8319 24.4091C30.3229 23.4944 29.8955 22.5511 29.7189 21.5091C29.6968 21.473 29.687 21.4343 29.6892 21.3921L29.6866 21.3848C29.6733 21.0081 29.8208 21.0063 30.0563 21.2266C30.3041 21.4552 30.3382 21.8388 30.6356 22.034C31.1986 22.9487 31.6314 23.9312 32.1544 24.8687C32.2121 24.9705 32.2914 25.0671 32.2917 25.1935Z" fill="#426328"/>
<path fill-rule="evenodd" clip-rule="evenodd" d="M44.6728 50.5055C44.5656 50.1802 44.4598 49.853 44.3531 49.528C44.597 49.6861 44.6806 49.9604 44.81 50.1937C45.0985 50.7085 45.4882 51.1674 45.6817 51.7371C45.7258 51.8655 45.8057 51.9812 45.8017 52.124C45.7969 52.3038 45.7204 52.4241 45.5272 52.4218C45.3748 52.4215 45.1938 52.4526 45.0727 52.3853C44.5469 52.0886 43.9381 51.8868 43.6786 51.2582C43.5937 51.0557 43.4504 50.8773 43.4171 50.6524C43.6736 50.3706 43.8311 50.6983 44.0226 50.7632C44.329 50.8682 44.6203 51.0121 44.6728 50.5055Z" fill="#689145"/>
<path fill-rule="evenodd" clip-rule="evenodd" d="M16.2553 22.0576C16.3863 22.1256 16.394 22.3425 16.6425 22.2901C16.8653 22.2408 16.9034 22.4878 16.9462 22.663C16.8554 22.711 16.7836 22.7236 16.6758 22.66C16.4742 22.5388 16.4771 22.5616 16.3653 22.8197C16.334 22.8888 16.2013 22.9133 16.1151 22.9575C15.8242 22.8501 15.5783 22.6677 15.3335 22.4868C14.9628 22.2165 14.5972 21.94 14.2224 21.6746C13.6813 21.2881 13.1752 20.865 12.774 20.3288C12.7003 20.2271 12.5537 20.1136 12.6912 19.9774C12.7968 19.8731 12.9184 19.9707 13.0071 20.0398C13.6611 20.5274 14.3228 21.003 14.95 21.5212C15.2847 21.7984 15.6541 21.9887 16.0361 22.1747C16.168 22.2405 16.2179 22.1655 16.2553 22.0576Z" fill="#6A8F41"/>
<path fill-rule="evenodd" clip-rule="evenodd" d="M23.6327 27.0514C23.708 26.9248 23.6929 26.8165 23.5459 26.7686C23.3736 26.715 23.4107 26.5937 23.4405 26.4827C23.4844 26.3134 23.6283 26.2829 23.7394 26.4147C23.794 26.4789 23.8336 26.5577 23.8694 26.6331C23.8981 26.6947 23.9091 26.7647 23.9388 26.8249C24.0834 27.1283 24.4181 27.2626 24.5877 27.5238C24.7575 27.783 24.7671 28.142 25.0836 28.3185C25.2375 28.4045 25.2313 28.5624 25.2644 28.7136C25.3177 28.9766 25.4566 29.2033 25.776 29.1627C25.9854 29.1367 26.0372 29.2739 26.1144 29.4016C26.1393 29.6546 26.3251 29.7835 26.5029 29.9201L26.5038 29.9228C26.5134 29.9689 26.5211 30.0158 26.5297 30.0634L26.5311 30.0644C26.3808 30.546 26.3449 30.5648 25.9711 30.2979C25.5833 30.0193 25.2547 29.6783 25.0062 29.2668C24.9071 29.1037 24.8067 28.9516 24.6253 28.8722C24.28 28.6064 24.0763 28.2182 23.7941 27.8984C23.8356 27.7385 24.1644 27.6823 23.9589 27.4358C23.9356 27.4044 23.9134 27.3723 23.8946 27.3385C23.8786 27.2706 23.8579 27.2035 23.7663 27.2065C23.7316 27.1956 23.7 27.1772 23.6708 27.1534C23.6598 27.1402 23.6493 27.1233 23.6389 27.1084C23.6373 27.0886 23.6347 27.0695 23.6327 27.0514Z" fill="#3B5F28"/>
<path fill-rule="evenodd" clip-rule="evenodd" d="M26.4301 22.6425C26.5481 22.6342 26.6651 22.6245 26.783 22.6175C26.8999 22.6119 26.9954 22.6421 26.9521 22.7875C26.9149 22.9142 26.9537 22.9752 27.0769 23.0135C27.2234 23.0582 27.2165 23.2011 27.1145 23.2302C26.9222 23.2855 26.9423 23.3875 26.9696 23.527C27.006 23.7145 27.1408 23.7151 27.2826 23.7046C27.3721 23.6966 27.4504 23.7246 27.5253 23.7675L27.5303 23.7675C27.4922 24.1973 27.4573 24.6273 27.8078 24.9668L27.8085 24.9728C27.8423 25.23 27.7463 25.4144 27.4201 25.4988C27.9865 25.8618 27.6764 26.3359 27.7042 26.7567C27.6723 27.0057 27.4632 27.0361 27.2863 27.1283C27.237 26.7904 27.2589 26.4499 26.9523 26.2352C26.8209 25.6579 26.8814 25.0628 26.7854 24.4754C26.6825 23.8611 26.5635 23.2509 26.4301 22.6425Z" fill="#436227"/>
<path fill-rule="evenodd" clip-rule="evenodd" d="M39.9144 30.7351C39.7507 30.6992 39.5853 30.7107 39.421 30.7416C39.3797 30.5792 39.6662 30.4311 39.375 30.2971C39.3145 30.2704 39.4504 29.9875 39.4738 29.8138C39.5025 29.5944 39.6739 29.6093 39.8669 29.6738C40.0009 29.7196 40.1939 29.3653 40.0937 29.196C39.9795 29.0017 40.0542 28.833 40.0824 28.6604C40.1319 28.3481 40.204 28.3302 40.4458 28.5603C40.5365 28.6495 40.6357 28.7634 40.7299 28.6235C40.9515 28.2891 41.026 28.4856 41.0898 28.7095C41.1326 28.8577 41.2599 28.9121 41.3584 28.9991L41.359 29.0051C41.4017 29.1255 41.2466 29.1892 41.272 29.3046C41.2035 29.4644 41.1115 29.608 40.9901 29.7331C40.8483 29.8365 40.7169 29.866 40.6067 29.7009C40.5592 30.6671 40.5423 30.6915 39.9144 30.7351Z" fill="#44672A"/>
<path fill-rule="evenodd" clip-rule="evenodd" d="M19.6449 33.52C19.6193 33.591 19.3813 33.4842 19.5078 33.6607C19.5875 33.7728 19.6975 33.8491 19.648 34.0103C19.33 33.8841 19.0968 33.7355 19.1477 33.3312C19.18 33.0616 18.8753 33.0181 18.7179 32.8771C18.3004 32.6873 17.9368 32.4178 17.5975 32.1131C17.5505 32.075 17.5035 32.0368 17.4564 31.9987C17.7014 31.9294 17.944 31.8785 18.1594 32.0848C18.1989 32.1218 18.2248 32.1225 18.3591 31.9708C18.4411 31.8786 18.464 31.9625 18.5037 31.9823C18.7986 32.1079 19.1138 32.2114 19.3405 32.4443C19.5155 32.6239 19.7387 32.4791 19.9131 32.5835C20.188 32.58 20.2533 32.9927 20.5663 32.9103L20.5654 32.9117C20.6883 32.8784 20.809 32.7714 20.943 32.8852C20.9969 32.9884 21.014 33.0926 20.9886 33.2053C20.8888 33.2512 20.7912 33.223 20.699 33.1909C20.6411 33.1695 20.5574 33.0962 20.5308 33.1686C20.3661 33.6299 19.9292 33.3761 19.6449 33.52Z" fill="#42672A"/>
<path fill-rule="evenodd" clip-rule="evenodd" d="M14.2435 31.3839C14.5736 31.6017 14.8046 31.9485 15.1896 32.1191C14.8867 32.126 14.5992 32.2996 14.3099 32.0838C14.2049 32.0054 14.0542 31.9987 13.9193 32.0542C13.1411 31.4978 12.2955 31.0353 11.5676 30.4063C11.5046 30.2233 11.2643 30.2168 11.1992 30.0358C11.3471 29.8194 11.5174 29.9438 11.6935 29.9959C11.942 30.0704 12.1078 30.2943 12.3628 30.3505C12.9893 30.6949 13.6177 31.0385 14.2435 31.3839Z" fill="#406228"/>
<path fill-rule="evenodd" clip-rule="evenodd" d="M44.6742 50.5056C44.7909 50.9541 44.6477 51.1376 44.2414 50.9785C44.0461 50.9013 43.7498 50.9316 43.6472 50.6496C43.6396 50.6256 43.4977 50.6513 43.4186 50.6533C42.8995 49.9181 42.4482 49.1433 42.0528 48.3337C42.3647 48.2089 42.5731 48.3964 42.7676 48.5848C43.0548 48.8665 43.2443 49.2281 43.5048 49.5294C43.7697 49.8373 43.9538 50.2126 44.2871 50.4638C44.4159 50.5601 44.5244 50.6715 44.6742 50.5056Z" fill="#4C7531"/>
<path fill-rule="evenodd" clip-rule="evenodd" d="M21.1385 13.9404C21.0987 13.9938 21.0478 14.0452 21.0217 14.1048C20.8523 14.4851 20.7345 14.5199 20.3317 14.3009C20.4198 13.1332 20.0499 12.0509 19.6989 10.9684C19.8491 10.7259 19.8931 10.7335 20.1293 11.0367C20.5902 11.9618 20.9508 12.9205 21.1385 13.9404Z" fill="#53752E"/>
<path fill-rule="evenodd" clip-rule="evenodd" d="M26.3292 18.3163C26.0635 18.2416 25.8349 18.5781 25.5303 18.3745C25.5702 18.208 25.6828 18.1106 25.8358 18.1169C26.1228 18.126 26.0921 17.9744 26.0338 17.7925C25.9611 17.5763 25.7947 17.4893 25.5861 17.4292C25.2552 17.3315 25.2415 17.3143 25.3565 17.0135C25.4197 16.8534 25.3395 16.7132 25.3623 16.5653C25.3772 16.4648 25.3104 16.4371 25.2078 16.4221C24.8281 16.3717 24.8211 16.3578 24.9338 16.0644C24.9915 15.9102 24.9956 15.7903 24.8549 15.6573C24.7124 15.5189 24.6033 15.3393 24.4988 15.167C24.3511 14.9251 24.2523 14.6417 23.8715 14.6958C23.6943 14.7234 23.7716 14.415 23.5779 14.4263C23.5842 14.2892 23.6531 14.2129 23.7947 14.2168C23.9145 14.2209 23.9346 14.4269 24.089 14.3662C24.2494 14.5849 24.4311 14.7768 24.6541 14.9412C24.9129 15.1318 25.1123 15.3852 25.224 15.704C25.3463 16.0565 25.4917 16.4007 25.6322 16.747C25.6947 16.8978 25.735 17.0707 25.913 17.1359C26.0891 17.007 26.0432 16.8192 26.0894 16.6627C26.1034 16.6495 26.1201 16.6424 26.1398 16.6429C26.2697 16.6976 26.3072 16.7985 26.2929 16.93C26.3279 17.1935 26.3765 17.4574 26.304 17.7198C26.3101 17.7601 26.3141 17.8003 26.3196 17.8403C26.3311 17.8767 26.341 17.9154 26.3539 17.9507C26.3693 17.9856 26.3822 18.023 26.3937 18.0594C26.4076 18.1183 26.41 18.1748 26.3798 18.2273C26.3636 18.2577 26.3463 18.2866 26.3292 18.3163Z" fill="#88A653"/>
<path fill-rule="evenodd" clip-rule="evenodd" d="M41.27 20.8322C41.2408 20.5803 41.2061 20.3316 41.187 20.0791C41.1643 19.7749 41.4525 19.3944 41.7448 19.3239C42.0003 19.2654 42.1158 19.3379 42.1551 19.6141C42.2431 20.218 42.262 20.8226 42.15 21.4259C41.7054 21.4511 41.4389 21.2135 41.27 20.8322Z" fill="#5F8535"/>
<path fill-rule="evenodd" clip-rule="evenodd" d="M18.8367 37.2026C19.1177 37.4051 19.4894 37.3801 19.7707 37.5793C19.8335 37.6228 19.9001 37.5858 19.9617 37.555C20.1827 37.4372 20.3562 37.561 20.3966 37.7416C20.4615 38.028 20.5937 37.9934 20.7985 37.926C21.1211 37.8198 21.397 37.9439 21.6391 38.1527C21.8711 38.351 21.8587 38.4028 21.569 38.5527C21.5281 38.5736 21.4957 38.6184 21.4597 38.6523L21.4526 38.6515C21.3798 38.6406 21.3191 38.5721 21.2358 38.6052C21.2026 38.6161 21.1754 38.6063 21.1534 38.5799C20.8022 38.4515 20.4585 38.2942 20.071 38.3131L20.0662 38.3119C19.8896 38.1707 19.6826 38.1062 19.4671 38.0531C19.1189 37.9662 18.8667 37.74 18.6838 37.4439C18.6013 37.307 18.5739 37.1465 18.8367 37.2026Z" fill="#314A20"/>
<path fill-rule="evenodd" clip-rule="evenodd" d="M27.7056 26.7568C27.6123 26.5244 27.4779 26.2994 27.6734 26.0425C27.7486 25.9421 27.6521 25.8502 27.5664 25.7908C27.411 25.6809 27.2716 25.5621 27.2361 25.3523C27.3646 25.2001 27.5282 25.41 27.6604 25.3055C27.7722 25.2173 27.6169 25.0173 27.8102 24.9725C27.9133 25.1348 27.9269 25.3232 27.9474 25.5045C27.999 26.0118 28.0798 26.5123 28.2077 27.0046C28.2724 27.2512 28.2992 27.5035 28.3072 27.76C28.3223 28.287 28.3289 28.2875 27.8852 28.4963C27.8368 28.3892 27.7937 28.2803 27.7382 28.1774C27.6888 28.0827 27.5162 28.0026 27.6439 27.8935C27.7155 27.8322 27.7712 27.7329 27.8577 27.7062C27.9202 27.6871 28.0047 27.7402 28.1795 27.7921C27.9029 27.4401 28.0879 26.9915 27.7056 26.7568Z" fill="#62873A"/>
<path fill-rule="evenodd" clip-rule="evenodd" d="M16.3419 20.8614C16.0536 20.7821 15.8867 20.4549 15.5486 20.4755C15.518 20.4786 15.4626 20.4555 15.4623 20.442C15.4419 20.0285 15.0508 19.9986 14.8139 19.8113C14.6936 19.7168 14.6756 19.6058 14.6817 19.4541C14.6947 19.1184 14.6066 19.0365 14.2563 19.0536C14.0608 19.0616 14.0301 18.955 13.9971 18.8156C13.9719 18.7039 13.9698 18.5609 13.8012 18.5722C13.761 18.5742 13.7061 18.6193 13.6915 18.6584C13.6396 18.7791 13.6764 18.8781 13.7738 18.9755C13.9411 19.1422 14.0835 19.3338 14.2936 19.4567C14.4483 19.5467 14.5711 19.6644 14.4939 19.8709C14.0961 19.4875 13.6816 19.1175 13.3526 18.6681C13.2557 18.456 12.9274 18.2414 13.1541 18.0236C13.3638 17.8202 13.5509 18.1552 13.7314 18.2659C13.9701 18.4127 14.2281 18.5425 14.4086 18.7731C15.1143 19.4122 15.7409 20.1263 16.3419 20.8614Z" fill="#5C8536"/>
<path fill-rule="evenodd" clip-rule="evenodd" d="M19.7934 19.2732C19.8265 19.1734 19.8473 19.0714 19.9968 19.1618C20.1476 19.2553 20.2718 19.4261 20.4764 19.3891C20.5706 19.3282 20.5072 19.2656 20.4987 19.2049C20.4694 19.0092 20.5336 18.9407 20.721 19.0443C20.7361 19.0527 20.7531 19.061 20.7632 19.0735C21.2257 19.5643 21.709 20.0443 21.8296 20.752C21.8414 20.8171 21.8238 20.8853 21.8156 20.9531C21.8089 21.0088 21.776 21.0442 21.719 21.0504C21.6628 21.0565 21.6103 21.0333 21.5937 20.9822C21.4554 20.5958 21.2145 20.3212 20.803 20.2078C20.7324 20.1886 20.6654 20.1012 20.6308 20.0301C20.4678 19.6813 20.1562 19.5088 19.8446 19.3323C19.8123 19.3258 19.7938 19.3075 19.7934 19.2732Z" fill="#2E4420"/>
<path fill-rule="evenodd" clip-rule="evenodd" d="M26.9181 16.7312C26.9886 16.6726 26.9996 16.5638 27.1469 16.5862C27.4305 16.6303 27.7296 16.7019 27.979 16.4713C27.8589 16.9802 27.7522 17.49 27.6139 17.9953C27.531 18.3038 27.454 18.6117 27.4169 18.9292C27.301 18.7414 27.1321 18.6111 26.9501 18.4945C26.7085 18.2361 26.9691 18.1513 27.1095 18.0268C26.8832 17.6153 26.8376 17.1822 26.9181 16.7312Z" fill="#7EA24E"/>
<path fill-rule="evenodd" clip-rule="evenodd" d="M13.6546 27.0995C13.361 26.9451 13.0655 26.7942 12.7732 26.6407C12.6163 26.5561 12.4862 26.5887 12.379 26.7292C11.9654 26.2898 11.5136 25.8766 11.3252 25.1954C11.7194 25.1859 11.9628 25.3928 12.1557 25.5946C12.6254 26.0861 13.0988 26.5712 13.6221 27.0034C13.6455 27.0217 13.6454 27.0668 13.6546 27.0995Z" fill="#779648"/>
<path fill-rule="evenodd" clip-rule="evenodd" d="M30.6392 22.0337C30.4084 21.9506 30.1546 21.9216 30.1619 21.5612C30.1647 21.3842 29.9045 21.3204 29.8376 21.093C29.7645 21.2364 29.728 21.3109 29.6902 21.3845C29.5006 20.9591 29.4078 20.514 29.4001 20.0503C29.3968 19.9031 29.4191 19.773 29.5884 19.7378C29.7483 19.7052 29.8448 19.795 29.9079 19.931C29.928 19.9769 29.9559 20.0246 29.961 20.0733C30.0382 20.7778 30.3783 21.3931 30.6392 22.0337Z" fill="#5E8133"/>
<path fill-rule="evenodd" clip-rule="evenodd" d="M18.8351 37.2025C18.765 37.2086 18.6752 37.2691 18.7199 37.3147C18.9578 37.5574 19.1324 37.8816 19.5249 37.9334C19.7622 37.9662 19.9799 38.0492 20.065 38.3114C19.6998 38.271 19.3418 38.1905 18.9952 38.0673C18.5136 37.831 18.0799 37.5025 17.5517 37.3524C17.3865 37.3037 17.1028 37.2068 17.3848 36.9371C17.5623 36.8432 17.7416 36.8587 17.9242 36.9133C18.1347 36.9767 18.3506 37.0093 18.5717 37.0004C18.6849 37.0151 18.8358 36.9215 18.8946 37.1058C18.8745 37.1376 18.8553 37.1694 18.8351 37.2025Z" fill="#4B722C"/>
<path fill-rule="evenodd" clip-rule="evenodd" d="M39.9148 30.7354C40.0178 30.492 40.3618 30.7077 40.4594 30.4461C40.5351 30.242 40.4352 30.0451 40.4497 29.8513C40.4593 29.7485 40.5125 29.4879 40.7438 29.7162C40.7877 29.7599 40.9057 29.7287 40.9899 29.7323C40.6017 30.4699 40.3396 31.2907 39.6124 31.8022C39.2675 32.0456 39.1369 32.4528 38.8698 32.755C38.9814 32.1972 39.3134 31.7376 39.5663 31.2439C39.8431 31.1828 39.8763 30.9569 39.9148 30.7354Z" fill="#6F994B"/>
<path fill-rule="evenodd" clip-rule="evenodd" d="M30.8541 27.2968C30.6499 27.2343 30.4577 27.0315 30.2336 27.2526C29.6681 26.5214 29.0763 25.8072 28.7513 24.862C29.0204 24.86 29.1269 25.0054 29.2226 25.1584C29.693 25.9277 30.273 26.613 30.8541 27.2968Z" fill="#6D8D41"/>
<path fill-rule="evenodd" clip-rule="evenodd" d="M23.8921 27.2243C23.9172 27.2451 23.9415 27.2661 23.9641 27.2894C24.057 27.6784 23.8375 27.669 23.6182 27.5203C23.4035 27.377 23.2138 27.1906 23.018 27.059C23.0411 27.1846 23.3784 27.1412 23.2594 27.3998C22.6531 26.9473 22.0681 26.4701 21.5073 25.962C21.6722 25.8253 21.4266 25.6965 21.5003 25.5632C21.5218 25.5212 21.5433 25.4592 21.578 25.4472C21.6146 25.4365 21.7071 25.473 21.7078 25.4901C21.7252 25.8468 22.2263 25.8892 22.2063 26.3108C22.1995 26.4836 22.5044 26.6139 22.7404 26.5155C22.8512 26.4697 22.9186 26.4505 22.9991 26.5514C23.1701 26.7678 23.4211 26.8878 23.6347 27.0506C23.6366 27.0859 23.6496 27.1081 23.6731 27.1132C23.6968 27.12 23.7123 27.1197 23.7175 27.1122C23.7461 27.1279 23.7721 27.1445 23.8017 27.1608C23.8337 27.1567 23.8579 27.1637 23.8744 27.1849C23.8904 27.2058 23.8967 27.2177 23.8921 27.2243Z" fill="#73984C"/>
<path fill-rule="evenodd" clip-rule="evenodd" d="M23.5837 13.1416C23.3247 13.1581 23.079 13.1985 22.9509 13.4681C22.7709 12.887 22.4204 12.3596 22.404 11.7263C22.5009 11.4468 22.6398 11.4204 22.8245 11.656C22.8454 11.7308 22.9392 11.7675 22.9252 11.8597C23.1446 12.2871 23.3645 12.7149 23.5837 13.1416Z" fill="#809F4D"/>
<path fill-rule="evenodd" clip-rule="evenodd" d="M44.528 19.9543C44.616 19.4745 44.6756 18.9917 44.6431 18.5017C44.6371 18.4033 44.6618 18.2998 44.6904 18.2025C44.7289 18.0711 44.7865 17.928 44.9568 17.9504C45.1002 17.9666 45.1251 18.1087 45.1472 18.2197C45.2425 18.7511 45.2968 19.2866 45.2371 19.8276C45.002 19.8816 44.7518 19.8475 44.528 19.9543Z" fill="#8FAE57"/>
<path fill-rule="evenodd" clip-rule="evenodd" d="M44.529 19.9541C44.7057 19.5843 44.9726 19.7154 45.2381 19.8274L45.2371 19.8288C45.2474 19.872 45.2488 19.918 45.2416 19.9623C45.2721 20.2324 45.303 20.5027 45.3358 20.7723C45.266 20.8689 45.1997 20.9685 45.1238 21.0629C45.0458 21.1634 44.9883 21.3252 44.8136 21.2602C44.6461 21.1988 44.5234 21.0908 44.525 20.8846C44.5282 20.6511 44.6048 20.4137 44.4903 20.1859L44.4908 20.1841C44.4769 20.1031 44.5413 20.0403 44.5331 19.9611L44.529 19.9541Z" fill="#50762C"/>
<path fill-rule="evenodd" clip-rule="evenodd" d="M37.9471 38.9771C38.0147 39.0185 38.0824 39.0578 38.1515 39.0981C38.3385 39.4823 38.4073 39.9031 38.5357 40.3048C38.7681 41.0374 39.1605 41.6923 39.4742 42.3827C39.4534 42.3926 39.4303 42.4029 39.4069 42.4117C38.7607 42.1708 38.4071 41.6489 38.309 41.0185C38.2111 40.3848 37.958 39.7911 37.8975 39.1535C37.892 39.0845 37.8809 39.0235 37.9471 38.9771Z" fill="#415E27"/>
<path fill-rule="evenodd" clip-rule="evenodd" d="M16.2995 10.1074C16.1155 9.93273 15.8626 10.0194 15.6529 9.94192C15.5903 9.91927 15.5797 10.0284 15.5591 10.0842C15.3005 9.75018 15.0405 9.41522 14.786 9.07641C14.7149 8.98201 14.645 8.8788 14.6107 8.76833C14.5733 8.65226 14.6398 8.57145 14.7742 8.58562C14.8221 8.59251 14.8772 8.61201 14.9109 8.64645C15.3836 9.12346 15.9613 9.50127 16.2995 10.1074Z" fill="#60803B"/>
<path fill-rule="evenodd" clip-rule="evenodd" d="M36.4272 27.3167C36.6192 27.5157 36.5966 27.8093 36.6153 28.0262C36.6478 28.3843 36.8132 28.7196 36.7604 29.1087C36.7267 29.3571 36.7952 29.6702 36.8664 29.9435C36.9693 30.331 36.9736 30.7057 36.8103 31.075C36.7767 31.0836 36.7518 31.0795 36.7363 31.0598C36.7223 31.039 36.7175 31.026 36.722 31.0194C36.6463 29.838 36.4948 28.6658 36.2745 27.5048C36.3003 27.4457 36.3045 27.3897 36.2546 27.3406L36.2511 27.3416C36.2975 27.2497 36.3576 27.2421 36.4272 27.3167Z" fill="#456B2B"/>
<path fill-rule="evenodd" clip-rule="evenodd" d="M16.2679 29.7889C16.0346 29.6874 15.8539 29.492 15.5948 29.4406C15.5345 29.4286 15.453 29.3762 15.4359 29.3248C15.2968 28.9136 14.9172 28.7591 14.606 28.5419C14.3628 28.3697 14.2994 28.0373 13.9869 27.928C13.8975 27.8979 13.8244 27.7724 13.7012 27.7472C13.654 27.7352 13.6104 27.703 13.5678 27.6775C13.4078 27.5853 13.2934 27.4443 13.3421 27.2631C13.3901 27.087 13.5866 27.2275 13.6972 27.1551C13.9226 27.3149 14.0933 27.5297 14.2305 27.7607C14.6508 28.4614 15.298 28.9289 15.8993 29.4445C16.0282 29.5526 16.189 29.6267 16.2679 29.7889Z" fill="#779648"/>
<path fill-rule="evenodd" clip-rule="evenodd" d="M20.8131 32.5641C20.7937 32.4321 20.6913 32.3687 20.5942 32.3048C20.4788 32.2282 20.3543 32.1329 20.3316 32.0096C20.2396 31.4805 19.8248 31.1658 19.5422 30.7645C19.4935 30.6947 19.4587 30.62 19.4687 30.5306C19.8131 30.8998 20.1913 31.2411 20.4273 31.6988C20.4509 31.7436 20.4722 31.8 20.5106 31.8245C21.1314 32.1982 21.3969 32.933 22.0178 33.3054C22.1193 33.3661 22.213 33.4428 22.2517 33.564C21.6809 33.4662 21.2314 33.1656 20.8616 32.7302C20.8255 32.6822 20.811 32.625 20.8131 32.5641Z" fill="#91A069"/>
<path fill-rule="evenodd" clip-rule="evenodd" d="M41.2724 20.832C41.5436 21.0617 41.8339 21.2651 42.1527 21.4253C42.2242 22.0101 42.1526 22.5901 42.135 23.1714C42.029 23.0563 41.9212 22.9267 41.9641 22.7679C42.0436 22.4784 41.7204 22.4685 41.6634 22.2937C41.6028 22.1082 41.9397 21.9973 41.7908 21.7581C41.667 21.5627 41.6203 21.2931 41.2943 21.3513C41.232 21.1812 41.2251 21.0072 41.2724 20.832Z" fill="#84A94E"/>
<path fill-rule="evenodd" clip-rule="evenodd" d="M23.1233 37.6793C22.9958 37.7982 22.9163 37.9317 22.69 37.9591C21.8498 38.0608 21.163 37.7654 20.5381 37.2488C21.3901 37.45 22.2527 37.5768 23.1233 37.6793Z" fill="#91A451"/>
<path fill-rule="evenodd" clip-rule="evenodd" d="M25.8222 37.9177C25.6956 38.1842 25.4563 38.1312 25.2451 38.1019C25.074 38.0776 24.916 38.0206 24.7651 38.1552C24.6924 38.2199 24.5973 38.2142 24.5323 38.1518C24.2703 37.9118 23.9477 37.98 23.6569 38.0064C23.3632 38.033 23.2236 37.9133 23.1243 37.6786C23.2738 37.609 23.4237 37.6658 23.5682 37.6905C24.2336 37.8088 24.9034 37.8587 25.5794 37.8658C25.6615 37.8665 25.7419 37.8994 25.8222 37.9177Z" fill="#91A452"/>
<path fill-rule="evenodd" clip-rule="evenodd" d="M20.8894 32.6388C21.2512 33.0818 21.7977 33.2556 22.2531 33.5638C22.6098 33.8244 22.9777 34.0706 23.2648 34.4125C23.0864 34.4927 22.9255 34.5128 22.8723 34.2686C22.8293 34.0577 22.6897 33.995 22.5014 34.0016C22.3943 34.005 22.2874 34.0002 22.2148 33.92C21.8826 33.5461 21.4286 33.3879 20.9872 33.2045C20.8784 33.1235 20.8617 33.0266 20.9346 32.9115C20.9143 32.8218 20.7236 32.7588 20.8894 32.6388Z" fill="#45682A"/>
<path fill-rule="evenodd" clip-rule="evenodd" d="M20.6201 24.7222C20.701 24.6126 20.8722 24.5657 20.8605 24.3897C21.1242 24.5463 21.3842 24.7093 21.6145 24.9161C21.3561 24.8687 21.0975 24.7988 20.8493 24.8888C20.7797 25.3439 21.1766 25.5284 21.3521 25.8353C20.8714 25.4436 20.2986 25.1988 19.7852 24.8594C19.7991 24.8392 19.8149 24.8176 19.8326 24.798C20.0952 24.7873 20.3694 24.8798 20.6201 24.7222Z" fill="#73984C"/>
<path fill-rule="evenodd" clip-rule="evenodd" d="M28.4608 14.6807C28.0374 14.3004 27.8939 13.7896 27.8276 13.2333C28.1095 13.1709 28.1485 13.4635 28.2823 13.6035C28.3806 13.7077 28.4432 13.7733 28.5579 13.6421C28.6125 13.9982 28.5645 14.3422 28.4608 14.6807Z" fill="#A3C16D"/>
<path fill-rule="evenodd" clip-rule="evenodd" d="M18.3699 12.908C18.0016 12.5943 17.6768 12.2727 17.4794 11.7967C17.3192 11.4158 16.9956 11.0916 16.7058 10.7776C16.5158 10.5757 16.3456 10.3842 16.3008 10.1049C17.1375 10.93 17.7882 11.8944 18.3699 12.908Z" fill="#60803B"/>
<path fill-rule="evenodd" clip-rule="evenodd" d="M17.3836 36.9368C17.3651 36.9995 17.3152 37.0683 17.3697 37.1248C17.4117 37.1671 17.4848 37.1818 17.5436 37.208C17.8194 37.3292 18.1794 37.355 18.3693 37.5241C18.5722 37.7044 18.7868 37.8838 18.994 38.067C18.4034 37.8668 17.7988 37.6977 17.268 37.3504C17.1695 37.2855 17.0517 37.2094 17.0938 37.0707C17.1324 36.9401 17.256 36.9128 17.3836 36.9368Z" fill="#68964A"/>
<path fill-rule="evenodd" clip-rule="evenodd" d="M35.5615 32.8442C35.6443 32.9016 35.7647 32.94 35.8023 33.0188C36.0125 33.4565 36.3004 33.8482 36.4979 34.2931C36.6147 34.5607 36.5294 34.6977 36.335 34.834C36.1895 34.322 36.1128 33.7847 35.741 33.357C35.6262 33.2247 35.559 33.0366 35.5615 32.8442Z" fill="#4F702B"/>
<path fill-rule="evenodd" clip-rule="evenodd" d="M14.4113 18.7734C13.9926 18.5662 13.6827 18.1772 13.2259 18.0191C13.0796 18.306 13.3674 18.4508 13.3552 18.6684C13.0983 18.4749 12.8992 18.2273 12.7091 17.9734C12.669 17.9193 12.6314 17.8516 12.6694 17.7857C12.7239 17.6952 12.8145 17.7165 12.8919 17.7438C13.0496 17.8004 13.2188 17.8443 13.3572 17.9348C13.7364 18.1749 14.1422 18.3905 14.4113 18.7734Z" fill="#A5B87F"/>
<path fill-rule="evenodd" clip-rule="evenodd" d="M15.3218 24.6462C15.1928 24.7342 14.9342 24.5701 14.911 24.8605C14.7038 24.6793 14.5747 24.4386 14.4327 24.2084C14.3873 24.1339 14.3574 24.0452 14.4251 23.9736C14.5134 23.8802 14.6174 23.9281 14.697 23.9923C14.9323 24.1819 15.1679 24.3751 15.3218 24.6462Z" fill="#7E9851"/>
<path fill-rule="evenodd" clip-rule="evenodd" d="M36.7312 31.1644C37.0331 31.3849 36.8882 31.6769 36.8313 31.9369C36.8034 32.0611 36.7651 32.1531 36.8754 32.2442C36.9411 32.3764 36.9271 32.4985 36.8231 32.6115C36.7134 32.7316 36.6251 32.8999 36.4223 32.8445C36.2035 32.785 36.2503 32.5935 36.247 32.4324L36.2475 32.4306C36.2719 32.4004 36.2969 32.3685 36.3222 32.3389C36.519 32.3922 36.5909 32.3014 36.6235 32.1125C36.6753 31.7989 36.6116 31.4718 36.7312 31.1644Z" fill="#6C8B46"/>
<path fill-rule="evenodd" clip-rule="evenodd" d="M23.2584 27.3999C23.2509 27.1798 22.9666 27.1809 22.9106 26.9327C23.1695 27.1573 23.4796 27.2011 23.6966 27.4459C23.874 27.648 23.9418 27.4614 23.9627 27.2893C24.3059 27.6383 24.2697 27.7734 23.7955 27.8972C23.5678 27.7837 23.4424 27.5615 23.2584 27.3999Z" fill="#577F2F"/>
<path fill-rule="evenodd" clip-rule="evenodd" d="M38.8052 16.7247C38.6316 16.6681 38.5226 16.4553 38.2998 16.5156C38.1605 16.1986 38.1508 15.8617 38.1676 15.5156C38.4761 15.8725 38.7946 16.2181 38.8052 16.7247Z" fill="#7EA04E"/>
<path fill-rule="evenodd" clip-rule="evenodd" d="M39.9229 43.1972C39.7325 43.1497 39.6065 42.8515 39.3524 43.0469C39.3191 43.071 39.2705 43.0712 39.2676 43.0373C39.2427 42.7184 38.9486 42.6254 38.6814 42.4519C38.905 42.3074 39.0288 42.5458 39.1605 42.443C39.2371 42.3865 39.3293 42.4075 39.4133 42.3923C39.4333 42.3875 39.4526 42.3856 39.4731 42.3831C39.6493 42.6399 39.8018 42.91 39.9229 43.1972Z" fill="#3C6129"/>
<path fill-rule="evenodd" clip-rule="evenodd" d="M18.4712 40.0526C18.3858 40.1008 18.3008 40.1494 18.1821 40.2196C18.6297 40.5169 19.2357 40.413 19.5792 40.8565C19.1137 40.8387 18.6812 40.7066 18.2871 40.4581C18.1636 40.3802 17.9655 40.2989 18.0336 40.1277C18.1086 39.9336 18.3068 39.9878 18.4712 40.0526Z" fill="#809C56"/>
<path fill-rule="evenodd" clip-rule="evenodd" d="M18.8966 37.1058C18.7887 37.0705 18.6817 37.0357 18.5742 37.0007C18.7241 36.8766 18.895 36.8142 19.0876 36.8534C19.4476 36.9242 19.8146 36.9659 20.1514 37.126C20.0036 37.2211 19.8875 37.3146 19.665 37.2525C19.4212 37.1812 19.1829 36.975 18.8966 37.1058Z" fill="#9AAD66"/>
<path fill-rule="evenodd" clip-rule="evenodd" d="M40.201 46.1578C40.3504 46.2164 40.6061 46.0186 40.6501 46.3452C40.6604 46.4293 40.7363 46.4278 40.8098 46.4088C40.8805 46.3899 40.9906 46.4531 40.9766 46.4753C40.7743 46.8079 41.2114 46.9265 41.2064 47.1866C41.2047 47.2041 41.1949 47.2182 41.1889 47.2348C40.8249 46.9089 40.5238 46.5232 40.201 46.1578Z" fill="#4C7234"/>
<path fill-rule="evenodd" clip-rule="evenodd" d="M12.3632 30.3513C12.1772 30.3845 12.0673 30.2251 11.9131 30.1764C11.6825 30.1031 11.4599 29.964 11.1999 30.0361C11.134 30.007 11.0899 29.9597 11.0673 29.8914C11.0373 29.7936 10.995 29.6776 11.0814 29.603C11.1736 29.5241 11.2738 29.5936 11.3581 29.6521C11.6937 29.8849 12.0294 30.1177 12.3632 30.3513Z" fill="#769847"/>
<path fill-rule="evenodd" clip-rule="evenodd" d="M27.8122 24.9667C27.6615 24.8511 27.3819 24.8263 27.4109 24.5767C27.4402 24.3065 27.2486 23.9968 27.5351 23.7677C27.664 24.1587 27.7359 24.5629 27.8122 24.9667Z" fill="#62873A"/>
<path fill-rule="evenodd" clip-rule="evenodd" d="M14.4969 12.3506C14.255 12.2604 14.0147 12.186 13.8799 11.9205C13.8158 11.795 13.649 11.7437 13.4864 11.7911C13.4145 11.6788 13.4135 11.5443 13.5017 11.4661C13.6319 11.3533 13.7065 11.5118 13.7861 11.5809C14.0513 11.8113 14.3162 12.0422 14.4969 12.3506Z" fill="#7B974B"/>
<path fill-rule="evenodd" clip-rule="evenodd" d="M36.409 35.6382C36.4347 35.6581 36.4578 35.6818 36.4762 35.7112C36.4329 36.2505 36.5628 36.774 36.6348 37.303C36.5418 37.2572 36.4211 37.2033 36.4165 37.1079C36.3969 36.6193 36.1561 36.1278 36.409 35.6382Z" fill="#E1E1DB"/>
<path fill-rule="evenodd" clip-rule="evenodd" d="M27.7104 30.7516C27.8198 30.8518 27.8859 30.9864 27.7639 31.0904C27.6348 31.2005 27.4296 31.2205 27.2998 31.1207C27.1744 31.0226 27.2841 30.8214 27.2347 30.6707C27.3868 30.7414 27.5039 31.0043 27.7104 30.7516Z" fill="#859A50"/>
<path fill-rule="evenodd" clip-rule="evenodd" d="M37.5348 40.8187C37.5597 40.7888 37.5841 40.7586 37.6086 40.7263C38.0202 40.9536 38.0681 41.2995 37.9244 41.7046C37.9049 41.7327 37.8868 41.7618 37.8693 41.7871C37.8304 41.7982 37.802 41.7931 37.7812 41.7711C37.76 41.7487 37.7525 41.7345 37.758 41.7265C37.6893 41.4237 37.5502 41.1365 37.5348 40.8187Z" fill="#3C6129"/>
<path fill-rule="evenodd" clip-rule="evenodd" d="M33.3511 17.7062C33.0904 17.5441 33.0669 17.7899 32.9812 17.9246C32.9611 17.8975 32.9317 17.875 32.9238 17.8453C32.8724 17.6515 32.7934 17.3575 32.9698 17.2982C33.1992 17.2223 33.295 17.496 33.3511 17.7062Z" fill="#CFD8B7"/>
<path fill-rule="evenodd" clip-rule="evenodd" d="M20.0684 38.3132C20.5059 38.0932 20.8183 38.3737 21.1508 38.58C20.7796 38.5334 20.4152 38.463 20.0684 38.3132Z" fill="#4B722C"/>
<path fill-rule="evenodd" clip-rule="evenodd" d="M44.3521 49.5298C44.0307 49.2334 43.7084 48.9384 43.5668 48.5047C43.8833 48.8032 44.2195 49.0891 44.3521 49.5298Z" fill="#689145"/>
<path fill-rule="evenodd" clip-rule="evenodd" d="M22.8215 11.6559C22.6622 11.5607 22.52 11.5807 22.401 11.7263C22.3837 11.6823 22.3485 11.6351 22.3499 11.591C22.3573 11.4644 22.318 11.3012 22.4862 11.2556C22.6511 11.2098 22.7219 11.3456 22.7799 11.4669C22.8068 11.5231 22.8083 11.592 22.8215 11.6559Z" fill="#D4DEBE"/>
<path fill-rule="evenodd" clip-rule="evenodd" d="M20.1297 11.037C19.9924 10.9701 19.8877 10.7201 19.6993 10.9687C19.6879 10.9552 19.6728 10.9461 19.6667 10.9308C19.6069 10.7971 19.5081 10.6266 19.6763 10.538C19.8046 10.471 19.9054 10.6276 19.9826 10.7352C20.0442 10.8293 20.149 10.9033 20.1297 11.037Z" fill="#C4CFAC"/>
<path fill-rule="evenodd" clip-rule="evenodd" d="M19.576 40.0968C19.2 40.2541 18.8298 40.256 18.4688 40.0527C18.8387 40.0472 19.2097 40.0182 19.576 40.0968Z" fill="#809C56"/>
<path fill-rule="evenodd" clip-rule="evenodd" d="M19.5471 16.6015C19.7709 16.8566 19.9933 17.1128 19.8777 17.4944C19.7156 17.2163 19.6231 16.9108 19.5471 16.6015Z" fill="#446629"/>
<path fill-rule="evenodd" clip-rule="evenodd" d="M17.5965 32.1131C17.9702 32.3682 18.3435 32.6237 18.7169 32.8771L18.6958 32.9075L18.6739 32.936C18.3072 32.674 17.8803 32.4868 17.5965 32.1131Z" fill="#557C2F"/>
<path fill-rule="evenodd" clip-rule="evenodd" d="M19.3837 14.6268C19.0783 14.5092 18.9396 14.2924 18.9892 13.9649C19.1647 14.1587 19.2921 14.383 19.3837 14.6268Z" fill="#5C7733"/>
<path fill-rule="evenodd" clip-rule="evenodd" d="M36.4277 27.3167C36.3691 27.3253 36.3107 27.3334 36.2516 27.3416C36.1879 27.2086 36.1577 27.0691 36.1799 26.9202C36.3351 26.9204 36.479 26.9619 36.6004 27.0627C36.5438 27.1483 36.4858 27.2329 36.4277 27.3167Z" fill="#52782D"/>
<path fill-rule="evenodd" clip-rule="evenodd" d="M23.7637 38.7334C23.9331 38.5341 24.1012 38.5737 24.2702 38.7359C24.1007 38.7613 23.9325 38.7729 23.7637 38.7334Z" fill="#608237"/>
<path fill-rule="evenodd" clip-rule="evenodd" d="M11.2011 30.0361C11.3566 30.1288 11.5275 30.2043 11.5695 30.4067C11.4028 30.3272 11.2515 30.2334 11.2011 30.0361Z" fill="#769847"/>
<path fill-rule="evenodd" clip-rule="evenodd" d="M18.8749 13.7674C18.7092 13.6844 18.6048 13.567 18.6485 13.365C18.7717 13.4733 18.8519 13.6045 18.8749 13.7674Z" fill="#5C7733"/>
<path fill-rule="evenodd" clip-rule="evenodd" d="M41.7234 27.248C41.7447 27.4361 41.699 27.5701 41.4746 27.5657C41.5591 27.4599 41.6407 27.3542 41.7234 27.248Z" fill="#749844"/>
<path fill-rule="evenodd" clip-rule="evenodd" d="M27.1337 36.2162C26.9535 36.268 26.847 36.1457 26.7303 36.046C26.8879 36.0457 27.017 36.1165 27.1337 36.2162Z" fill="#5A7E2E"/>
<path fill-rule="evenodd" clip-rule="evenodd" d="M15.6051 24.9712C15.4867 24.923 15.3952 24.854 15.3931 24.711C15.5061 24.7631 15.5969 24.8351 15.6051 24.9712Z" fill="#7E9851"/>
<path fill-rule="evenodd" clip-rule="evenodd" d="M21.2351 38.6044C21.3441 38.4442 21.3984 38.5498 21.4523 38.651C21.3685 38.6948 21.2977 38.6651 21.2351 38.6044Z" fill="#436629"/>
<path fill-rule="evenodd" clip-rule="evenodd" d="M27.2372 30.67C27.1256 30.6189 27.0351 30.5485 27.0377 30.4088C27.1447 30.4664 27.2175 30.5474 27.2372 30.67Z" fill="#859A50"/>
<path fill-rule="evenodd" clip-rule="evenodd" d="M41.2748 29.3036C41.2281 29.181 41.3074 29.0946 41.3619 29.0041C41.3888 29.0172 41.4127 29.0318 41.4357 29.0456C41.4054 29.1453 41.3521 29.2331 41.2748 29.3036Z" fill="#567D32"/>
<path fill-rule="evenodd" clip-rule="evenodd" d="M42.8748 47.5177C42.8351 47.5449 42.7934 47.5722 42.7531 47.6011C42.7404 47.5715 42.7108 47.5412 42.714 47.5136C42.7222 47.4438 42.7834 47.4585 42.8331 47.4569C42.866 47.4645 42.8811 47.4826 42.8748 47.5177Z" fill="#24301C"/>
<path fill-rule="evenodd" clip-rule="evenodd" d="M14.4967 19.8663C14.5844 19.8987 14.637 19.9559 14.6351 20.0545C14.5573 20.0137 14.4954 19.9631 14.4967 19.8663Z" fill="#5C8536"/>
<path fill-rule="evenodd" clip-rule="evenodd" d="M18.9908 13.9675C18.9033 13.9276 18.8523 13.8672 18.8741 13.7659C18.9496 13.812 19.006 13.8706 18.9908 13.9675Z" fill="#5C7733"/>
<path fill-rule="evenodd" clip-rule="evenodd" d="M22.923 11.8597C22.8473 11.8128 22.8047 11.7492 22.8227 11.6563C22.9102 11.6962 22.9517 11.7603 22.923 11.8597Z" fill="#D4DEBE"/>
<path fill-rule="evenodd" clip-rule="evenodd" d="M30.2824 27.3154C30.3749 27.349 30.4268 27.4101 30.4234 27.5131C30.3399 27.4725 30.277 27.4191 30.2824 27.3154Z" fill="#6D8D41"/>
<path fill-rule="evenodd" clip-rule="evenodd" d="M44.533 19.9601C44.5733 20.0449 44.5503 20.1171 44.4906 20.1831C44.459 20.0988 44.471 20.0246 44.533 19.9601Z" fill="#749844"/>
<path fill-rule="evenodd" clip-rule="evenodd" d="M37.7575 41.727C37.7943 41.7469 37.832 41.7675 37.8677 41.7881L37.8691 41.7891C37.8757 41.8595 37.8499 41.9117 37.7918 41.9505L37.7424 41.9578C37.7029 41.8777 37.725 41.8029 37.7575 41.727Z" fill="#5A7E2E"/>
<path fill-rule="evenodd" clip-rule="evenodd" d="M41.9352 48.1258C42.0247 48.1636 42.0786 48.2218 42.0495 48.3278C41.9718 48.2829 41.9233 48.2209 41.9352 48.1258Z" fill="#4C7531"/>
<path fill-rule="evenodd" clip-rule="evenodd" d="M13.4878 11.7947C13.5327 11.837 13.538 11.8864 13.5134 11.9408C13.4641 11.8989 13.4536 11.8501 13.4878 11.7947Z" fill="#7B974B"/>
<path fill-rule="evenodd" clip-rule="evenodd" d="M19.8743 17.4875C19.9265 17.5182 19.9457 17.5655 19.9364 17.6249C19.8858 17.5919 19.8577 17.5495 19.8743 17.4875Z" fill="#446629"/>
<path fill-rule="evenodd" clip-rule="evenodd" d="M19.9377 17.6272C19.9504 17.6658 19.9619 17.7063 19.9741 17.7446C19.931 17.7148 19.9231 17.6753 19.9377 17.6272Z" fill="#446629"/>
<path fill-rule="evenodd" clip-rule="evenodd" d="M25.7704 19.4402C25.8155 19.4812 25.8263 19.5296 25.809 19.5855C25.765 19.546 25.7472 19.4997 25.7704 19.4402Z" fill="#698B3A"/>
<path fill-rule="evenodd" clip-rule="evenodd" d="M27.417 19.0714C27.3818 19.0241 27.3748 18.9762 27.412 18.9265C27.4554 18.9739 27.4514 19.0218 27.417 19.0714Z" fill="#7EA24E"/>
<path fill-rule="evenodd" clip-rule="evenodd" d="M29.6902 21.3926C29.7275 21.4261 29.7388 21.4639 29.7201 21.51C29.6689 21.4815 29.6621 21.4412 29.6902 21.3926Z" fill="#5E8133"/>
<path fill-rule="evenodd" clip-rule="evenodd" d="M36.1245 26.6295C36.1744 26.6696 36.1858 26.7211 36.1567 26.78C36.1142 26.7353 36.1013 26.6869 36.1245 26.6295Z" fill="#52782D"/>
<path fill-rule="evenodd" clip-rule="evenodd" d="M36.1554 26.7696C36.2008 26.8142 36.2103 26.8645 36.1822 26.924C36.1354 26.8784 36.1266 26.8272 36.1554 26.7696Z" fill="#52782D"/>
<path fill-rule="evenodd" clip-rule="evenodd" d="M36.256 27.3408C36.3031 27.3908 36.3094 27.4458 36.2759 27.5051C36.2376 27.4542 36.225 27.4004 36.256 27.3408Z" fill="#52782D"/>
<path fill-rule="evenodd" clip-rule="evenodd" d="M35.9785 31.5971C35.9237 31.5702 35.907 31.5232 35.9175 31.4661C35.9704 31.4937 35.9984 31.5354 35.9785 31.5971Z" fill="#44672A"/>
<path fill-rule="evenodd" clip-rule="evenodd" d="M36.7209 31.0194C36.7504 31.0378 36.779 31.0576 36.8091 31.075C36.7833 31.1043 36.7575 31.1335 36.7302 31.1638C36.6786 31.1183 36.6876 31.0684 36.7209 31.0194Z" fill="#6C8B46"/>
<path fill-rule="evenodd" clip-rule="evenodd" d="M45.2399 19.9621C45.2021 19.9185 45.1974 19.8743 45.236 19.8276C45.275 19.8713 45.2775 19.9168 45.2399 19.9621Z" fill="#8FAE57"/>
<path fill-rule="evenodd" clip-rule="evenodd" d="M36.338 34.8601C36.3748 34.8933 36.3814 34.9299 36.3568 34.9734C36.3122 34.9424 36.3061 34.9041 36.338 34.8601Z" fill="#4F702B"/>
<path fill-rule="evenodd" clip-rule="evenodd" d="M41.8404 27.0793C41.8658 27.1386 41.8482 27.168 41.7836 27.1662C41.8018 27.1379 41.8209 27.1074 41.8404 27.0793Z" fill="#749844"/>
<path fill-rule="evenodd" clip-rule="evenodd" d="M29.9107 38.1508C30.2994 38.2941 30.7013 38.4085 31.0357 38.6731C31.1747 38.7806 31.2987 38.8818 31.2575 39.0793C31.2449 39.2363 31.1668 39.3499 31.0288 39.4199L31.0215 39.4184C30.7404 39.3648 30.566 39.1135 30.2996 39.0306L30.29 39.0295C30.1455 38.905 29.9753 38.8224 29.7884 38.8231C29.5203 38.8236 29.4067 38.5715 29.189 38.4885C29.0856 38.4486 29.054 38.2873 29.1055 38.174C29.1569 38.055 29.2703 38.1074 29.3666 38.1346C29.5467 38.1867 29.7279 38.1765 29.9107 38.1508Z" fill="#2C411E"/>
<path fill-rule="evenodd" clip-rule="evenodd" d="M37.9189 42.0752C38.2473 42.0936 38.4086 42.3489 38.6361 42.5387C38.3488 42.788 38.2029 42.5925 38.0493 42.4201C37.9995 42.3058 37.9044 42.2121 37.9189 42.0752Z" fill="#3C6129"/>
<path fill-rule="evenodd" clip-rule="evenodd" d="M30.2968 39.0307C30.6163 39.013 30.7721 39.3021 31.0188 39.4184C30.7135 39.4126 30.4727 39.2809 30.2968 39.0307Z" fill="#436629"/>
<path fill-rule="evenodd" clip-rule="evenodd" d="M31.027 39.42C31.1027 39.3068 31.1789 39.1939 31.2556 39.0793C31.3178 39.2806 31.0649 39.5274 31.4782 39.7031C31.1553 39.6989 31.1036 39.5445 31.027 39.42Z" fill="#436629"/>
<path fill-rule="evenodd" clip-rule="evenodd" d="M37.5925 42.7198C37.4608 42.6188 37.3807 42.4883 37.3715 42.3197C37.5228 42.4114 37.6312 42.5241 37.5925 42.7198Z" fill="#476D2B"/>
<path fill-rule="evenodd" clip-rule="evenodd" d="M37.7883 41.9515C37.8133 41.8974 37.8396 41.8436 37.8656 41.7901C37.9191 41.8779 37.938 41.9707 37.9157 42.0717C37.8736 42.0315 37.8319 41.9907 37.7883 41.9515Z" fill="#3C6129"/>
<path fill-rule="evenodd" clip-rule="evenodd" d="M38.0024 42.5066C38.0411 42.6617 37.982 42.7469 37.8223 42.7603C37.8823 42.6757 37.9414 42.5925 38.0024 42.5066Z" fill="#3C6129"/>
<path fill-rule="evenodd" clip-rule="evenodd" d="M28.4528 37.0095L28.4313 36.9661L28.4587 36.9607L28.4528 37.0095Z" fill="#436629"/>
<path fill-rule="evenodd" clip-rule="evenodd" d="M28.8655 33.0972C28.7255 32.8642 28.4656 32.765 28.345 32.585C28.2258 32.4101 28.1074 32.1359 28.2286 31.8462C28.5066 31.9413 28.5695 32.2844 28.8517 32.3464C28.9038 32.3582 28.9275 32.4669 28.8987 32.5315C28.8149 32.7113 28.8531 32.8903 28.8655 33.0972Z" fill="#426428"/>
<path fill-rule="evenodd" clip-rule="evenodd" d="M29.0874 33.0924C29.1074 33.0896 29.1299 33.0802 29.1383 33.0861C29.2241 33.1553 29.3295 33.2152 29.3103 33.3489C29.31 33.3674 29.2566 33.3963 29.2343 33.3905C29.0751 33.3481 29.0382 33.2413 29.0874 33.0924Z" fill="#426428"/>
<path fill-rule="evenodd" clip-rule="evenodd" d="M26.5029 29.9192C26.3696 29.8135 26.2029 29.8879 26.0599 29.84C25.9802 29.8111 25.8839 29.7609 25.8877 29.6734C25.895 29.537 26.0117 29.6256 26.0786 29.6062C26.2065 29.5707 26.0774 29.468 26.1139 29.4004C26.3061 29.5281 26.444 29.6952 26.5029 29.9192Z" fill="#54792D"/>
<path fill-rule="evenodd" clip-rule="evenodd" d="M38.9982 44.4555C38.9725 44.4356 38.9479 44.415 38.9236 44.3961C38.9509 44.2438 38.9287 44.0869 38.8677 43.9559C38.7346 43.6639 38.8767 43.519 39.1111 43.4049C39.0851 43.2565 39.1456 43.2063 39.2723 43.2886C39.387 43.3661 39.3307 43.5003 39.352 43.6115C39.3979 43.8562 39.4306 44.184 39.5944 44.3018C39.7615 44.4197 39.9148 44.5996 40.1253 44.6589C40.3054 44.7103 40.3854 44.8358 40.4804 44.9898C40.7277 45.3929 40.9775 45.8075 41.4665 45.9733C41.637 46.0334 41.7261 46.1949 41.8306 46.3201C42.0369 46.5686 42.042 46.966 42.407 47.1006C42.3207 47.246 42.4995 47.3832 42.4147 47.5435C41.9743 47.6395 41.7629 47.3084 41.5958 47.0206C41.4354 46.747 41.2252 46.5091 40.9876 46.3539C40.6049 46.1038 40.3535 45.6916 39.9055 45.5258C39.7945 45.4848 39.7042 45.339 39.6457 45.2215C39.4902 44.9098 39.2529 44.6772 38.9982 44.4555Z" fill="#24301C"/>
<path fill-rule="evenodd" clip-rule="evenodd" d="M37.9225 41.7052C37.9084 41.3507 37.8359 41.0133 37.6068 40.7268C37.6682 40.3243 37.5148 39.9427 37.4538 39.5578C37.408 39.2619 37.3187 38.9607 37.265 38.6613C37.2278 38.447 37.1627 38.2229 37.4715 38.1167C37.6152 38.0674 37.5092 37.9564 37.4588 37.8701C37.3348 37.66 37.3203 37.4579 37.5385 37.2673C37.7119 37.5381 37.824 37.8044 37.7847 38.1031C37.7636 38.2694 37.8685 38.397 37.8669 38.5484C37.8871 38.6262 37.8102 38.6921 37.8376 38.7715C37.8622 38.792 37.887 38.8133 37.9141 38.8342C37.9241 38.8807 37.9351 38.9258 37.9452 38.9743L37.947 38.9777C38.0132 39.2101 38.2367 39.4067 38.0976 39.6833C38.0649 39.7514 38.1269 39.8069 38.147 39.868C38.2537 40.191 38.3811 40.4942 38.3895 40.86C38.3968 41.1743 38.4856 41.5541 38.8304 41.7517C38.8925 41.7872 38.9402 41.8355 38.9478 41.9045C38.9831 42.1855 39.234 42.2535 39.4148 42.3928C39.3522 42.5171 39.2608 42.4989 39.162 42.4435C38.9973 42.3369 38.8582 42.2085 38.6213 42.2273C38.4209 42.2443 38.2322 42.1155 38.184 41.89C38.1495 41.7308 38.0338 41.7317 37.9225 41.7052Z" fill="#2E441F"/>
<path fill-rule="evenodd" clip-rule="evenodd" d="M20.8885 32.6386C20.9034 32.73 20.9174 32.8209 20.9347 32.9119C20.8103 32.9123 20.6873 32.9116 20.5636 32.9111C20.6426 32.7752 20.6135 32.6912 20.451 32.6575C20.3538 32.6387 20.3042 32.5633 20.3335 32.472C20.37 32.3614 20.4716 32.3889 20.5455 32.4193C20.6404 32.4554 20.7242 32.5135 20.8131 32.5634C20.837 32.5889 20.863 32.6133 20.8885 32.6386Z" fill="#385122"/>
<path fill-rule="evenodd" clip-rule="evenodd" d="M20.5648 32.9091C20.4207 33.0789 20.291 32.998 20.1886 32.8707C20.1068 32.7648 20.0291 32.6548 19.9116 32.5823C19.9344 32.5564 19.9535 32.5288 19.9697 32.4985C20.1697 32.6351 20.3672 32.7721 20.5648 32.9091Z" fill="#385122"/>
<path fill-rule="evenodd" clip-rule="evenodd" d="M26.9173 15.4819C27.0003 15.3662 27.1202 15.3453 27.2338 15.3964C27.4904 15.5064 27.7679 15.5761 28.012 15.753C27.3209 16.0316 27.321 16.0316 26.9173 15.4798L26.9173 15.4819Z" fill="#5D8536"/>
<path fill-rule="evenodd" clip-rule="evenodd" d="M27.2401 18.0814C27.1888 18.1214 27.1404 18.1912 27.0832 18.1986C26.8653 18.225 26.9427 18.3723 26.9482 18.4933C26.7385 18.4518 26.6089 18.2337 26.3821 18.2268C26.3711 18.1817 26.3608 18.1365 26.3508 18.09C26.6468 18.045 26.9386 17.6274 27.2401 18.0814Z" fill="#698B3A"/>
<path fill-rule="evenodd" clip-rule="evenodd" d="M20.0927 33.9549C19.983 33.8622 19.8184 33.8216 19.8067 33.6415C19.9317 33.7192 20.1654 33.6961 20.0927 33.9549Z" fill="#42672A"/>
<path fill-rule="evenodd" clip-rule="evenodd" d="M27.2422 18.0819C27.0849 17.9728 26.9265 17.8422 26.7744 18.0875C26.6879 18.2272 26.6492 18.0971 26.5885 18.0606C26.5045 18.0078 26.4262 18.0457 26.3525 18.091C26.3289 18.069 26.3043 18.0465 26.2802 18.0242C26.2681 17.9777 26.2585 17.9315 26.2529 17.8867L26.2525 17.8843C26.2479 17.8339 26.2336 17.7735 26.2563 17.7379C26.4388 17.4477 26.3243 17.195 26.1662 16.946C26.2194 16.8393 26.1962 16.7407 26.143 16.6435C26.2334 16.6251 26.2987 16.68 26.3737 16.7148C26.4851 16.7622 26.5679 16.7288 26.599 16.6089C26.6202 16.5293 26.5228 16.3938 26.6924 16.3873C26.8218 16.3827 26.8336 16.5005 26.8629 16.5923C26.8772 16.6396 26.9009 16.6845 26.9187 16.7308C26.9644 16.9698 27.1588 17.1823 27.016 17.4563C26.9541 17.5735 27.055 17.6699 27.1397 17.7647C27.2119 17.8466 27.3737 17.9263 27.2422 18.0819Z" fill="#54782C"/>
<path fill-rule="evenodd" clip-rule="evenodd" d="M36.2479 32.4329C36.2859 32.5271 36.3125 32.6267 36.3632 32.7125C36.416 32.7984 36.5419 32.8178 36.576 32.7416C36.6527 32.5611 36.9079 32.4871 36.8763 32.2447C36.9791 32.3084 37.0694 32.3862 37.1215 32.4959C37.1814 32.6206 37.3764 32.4314 37.4043 32.6241C37.32 32.7806 37.2034 32.6879 37.0969 32.6674C36.9922 32.6454 36.9253 32.6989 36.9153 32.7904C36.9043 32.8881 36.9816 32.9667 37.0689 32.9538C37.5853 32.871 37.5461 33.3375 37.695 33.5996C37.7776 33.7414 37.6691 33.8228 37.4724 33.7446C37.3652 33.7022 37.3587 33.7566 37.3465 33.8141C37.3193 33.9443 37.2537 34.0659 37.3016 34.2087C37.3259 34.2837 37.2576 34.3252 37.18 34.3261C36.994 34.1784 37.0108 33.9772 37.0202 33.7687C37.0289 33.5522 36.959 33.4101 36.7132 33.3186C36.2759 33.1554 36.1152 32.7971 36.2479 32.4329Z" fill="#44672A"/>
<path fill-rule="evenodd" clip-rule="evenodd" d="M20.6218 24.7226C20.3321 25.0792 20.3321 25.0792 19.8342 24.7984C19.3375 24.4448 18.8631 24.0721 18.538 23.5471C18.6545 23.4282 18.767 23.4549 18.8103 23.5473C18.9626 23.8527 19.2052 23.9287 19.513 23.869C19.6393 23.8457 19.7274 23.8727 19.707 24.0091C19.6729 24.2621 19.9106 24.3313 20.0203 24.3242C20.3454 24.3042 20.4584 24.5372 20.6218 24.7226Z" fill="#406329"/>
<path fill-rule="evenodd" clip-rule="evenodd" d="M37.8386 38.7719C37.793 38.6897 37.8239 38.6182 37.8679 38.5488C37.9102 38.6308 37.8829 38.7021 37.8386 38.7719Z" fill="#415E27"/>
<path fill-rule="evenodd" clip-rule="evenodd" d="M37.946 38.9739C37.9345 38.9264 37.925 38.8802 37.9149 38.8338C37.9243 38.8791 37.9349 38.926 37.946 38.9739Z" fill="#415E27"/>
<path fill-rule="evenodd" clip-rule="evenodd" d="M36.4102 26.7505C36.6327 26.5845 36.8011 26.6937 36.9686 26.8001C36.9761 26.8053 36.9634 26.8756 36.9436 26.8862C36.7188 27.0173 36.6018 26.7551 36.4102 26.7505Z" fill="#52782D"/>
<path fill-rule="evenodd" clip-rule="evenodd" d="M23.7165 27.1122C23.6469 27.1485 23.6164 27.1315 23.6337 27.0506C23.6604 27.0711 23.687 27.0917 23.7165 27.1122Z" fill="#577F2F"/>
<path fill-rule="evenodd" clip-rule="evenodd" d="M23.8916 27.2244C23.8612 27.2033 23.8312 27.1825 23.8008 27.1614C23.8295 27.166 23.8579 27.167 23.8854 27.1763C23.891 27.1802 23.8898 27.2079 23.8916 27.2244Z" fill="#577F2F"/>
<path fill-rule="evenodd" clip-rule="evenodd" d="M26.1634 16.9464C26.2553 17.0178 26.3036 17.1262 26.4224 17.1808C26.5755 17.251 26.6039 17.3989 26.4596 17.4951C26.3088 17.5964 26.3367 17.7662 26.2496 17.8847C26.2226 17.8077 26.152 17.7116 26.1783 17.6577C26.288 17.4135 26.1778 17.1825 26.1634 16.9464Z" fill="#698B3A"/>
<path fill-rule="evenodd" clip-rule="evenodd" d="M26.2489 17.8865C26.2585 17.9327 26.2678 17.9772 26.2762 18.024C26.2682 17.9776 26.2585 17.9327 26.2489 17.8865Z" fill="#698B3A"/>
<path fill-rule="evenodd" clip-rule="evenodd" d="M45.0038 20.6812C45.0675 20.7593 45.1222 20.8465 45.0383 20.9464C45.0028 20.9876 44.9414 20.9811 44.9014 20.9478C44.8065 20.8688 44.8185 20.7655 44.8717 20.6727C44.8982 20.6246 44.9566 20.6463 45.0038 20.6812Z" fill="#749844"/>
<path fill-rule="evenodd" clip-rule="evenodd" d="M39.1133 43.4055C39.1277 43.3988 39.1531 43.3823 39.1557 43.3855C39.1792 43.4109 39.1635 43.4195 39.1133 43.4055Z" fill="#30491F"/>
</g>
</svg>
