<svg width="35" height="39" viewBox="0 0 35 39" fill="none" xmlns="http://www.w3.org/2000/svg">
<path opacity="0.304576" d="M34.7996 24.0415L32.1891 15.4592C32.0977 15.1579 31.8286 14.9494 31.5198 14.9405L27.589 14.8284C27.4775 14.5938 27.2529 14.4367 26.9982 14.4153L22.9675 14.079C22.8756 13.7771 22.6054 13.5687 22.2958 13.5609L18.376 13.46L16.4199 7.02797C16.1205 6.04418 15.3296 5.29821 14.3453 5.07104C13.361 4.84388 12.3327 5.17005 11.6478 5.92668C10.9629 6.68331 10.7255 7.75545 11.025 8.73924L15.2262 22.5509L12.8348 20.3298C12.0546 19.6204 10.9612 19.3936 9.9717 19.736C8.98216 20.0783 8.2491 20.9369 8.05213 21.9844C7.85516 23.0319 8.22467 24.1066 9.01971 24.7986L12.3533 27.8547H12.3568V27.8582C13.0901 28.6147 13.7143 29.4738 14.2106 30.4098C15.0921 31.885 15.9251 33.2753 17.2604 33.3508C19.0165 33.45 19.4379 34.6054 20.0882 36.8099L20.5929 38.4805C20.7112 38.8697 21.1162 39.0873 21.4975 38.9667C22.1871 38.7472 22.0709 38.3654 21.6386 36.9451L21.4721 36.3845C20.8709 34.3469 20.1894 32.0379 17.3407 31.8774C16.7627 31.8449 16.0621 30.6736 15.4436 29.6403C14.8757 28.581 14.1604 27.6114 13.3198 26.7618L13.314 26.7565L9.97349 23.6892C9.52498 23.2962 9.35319 22.6657 9.53851 22.0928C9.72383 21.5198 10.2296 21.1177 10.8192 21.0745C11.203 21.0425 11.5833 21.1702 11.8735 21.4286L16.2164 25.4719C16.8136 25.9912 17.6662 25.5746 17.3928 24.7083L12.4013 8.30375C12.2547 7.82308 12.3704 7.29907 12.7049 6.92911C13.0393 6.55915 13.5417 6.39944 14.0228 6.51014C14.5039 6.62085 14.8906 6.98515 15.0372 7.46582L18.946 20.3127C19.018 20.5699 19.2208 20.7671 19.4759 20.8281C19.731 20.8891 19.9985 20.8043 20.1749 20.6066C20.3514 20.4088 20.4091 20.1291 20.3258 19.8755L18.8258 14.9482L21.7386 15.0231L23.5617 21.0167C23.6554 21.3253 23.9349 21.5357 24.2513 21.536C24.3241 21.5357 24.3964 21.5244 24.4658 21.5024C24.6487 21.4443 24.8016 21.3145 24.8907 21.1414C24.9798 20.9683 24.9979 20.7662 24.941 20.5794L23.4259 15.5985L26.3913 15.8457L28.0786 21.3926C28.1723 21.7012 28.4518 21.9116 28.7682 21.9119C28.841 21.9116 28.9133 21.9003 28.9827 21.8782C29.1658 21.8202 29.3187 21.6903 29.4078 21.5171C29.497 21.3438 29.515 21.1415 29.4579 20.9547L28.0474 16.3172L30.9619 16.4004L33.4198 24.4788C33.7138 25.4466 33.5222 26.5002 32.9077 27.2959C31.7546 28.8446 31.4217 30.8734 32.0175 32.7212L32.6105 34.672C32.7042 34.9806 32.9837 35.1911 33.3002 35.1913C33.3729 35.1911 33.4452 35.1797 33.5146 35.1577C33.6975 35.0997 33.8504 34.9698 33.9395 34.7967C34.0286 34.6236 34.0467 34.4215 33.9898 34.2348L33.3967 32.2839C32.9428 30.8998 33.1842 29.3763 34.0424 28.2088C34.9516 27.0317 35.2348 25.4731 34.7996 24.0415Z" fill="white"/>
<path opacity="0.304576" d="M7.77222 12.8144C7.62639 12.6803 7.42858 12.605 7.22231 12.605C7.01605 12.605 6.81823 12.6803 6.6724 12.8144L4.7726 14.5604V2.44018L6.6724 4.18618C6.97611 4.4653 7.46851 4.4653 7.77222 4.18618C8.07593 3.90706 8.07593 3.45452 7.77222 3.1754L4.54555 0.209378C4.39971 0.0753175 4.2019 0 3.99564 0C3.78937 0 3.59156 0.0753175 3.44573 0.209378L0.218432 3.1754C-0.0763392 3.45573 -0.0722626 3.90145 0.227595 4.17719C0.527452 4.45293 1.01244 4.45693 1.31763 4.18618L3.21805 2.44018V14.5604L1.31763 12.8144C1.01164 12.5493 0.531748 12.5558 0.234388 12.8291C-0.0629721 13.1023 -0.0700409 13.5434 0.218432 13.8246L3.44573 16.7906C3.59156 16.9247 3.78937 17 3.99564 17C4.2019 17 4.39971 16.9247 4.54555 16.7906L7.77222 13.8246C7.91805 13.6907 7.99999 13.509 7.99999 13.3195C7.99999 13.13 7.91805 12.9483 7.77222 12.8144Z" fill="white"/>
</svg>
