<svg width="30" height="30" viewBox="0 0 30 30" fill="none" xmlns="http://www.w3.org/2000/svg">
<path fill-rule="evenodd" clip-rule="evenodd" d="M18.3371 0.84473C18.0211 0.799428 17.7036 0.892864 17.4511 1.09389C17.1915 1.29775 17.0293 1.59222 16.994 1.92207C16.9192 2.58887 17.4003 3.19195 18.0662 3.26698C22.6586 3.77946 26.2281 7.35692 26.7444 11.9636C26.8136 12.5808 27.3314 13.0466 27.9493 13.0466C27.9959 13.0466 28.041 13.0438 28.0876 13.0381C28.4107 13.0027 28.6985 12.8427 28.9016 12.5879C29.1034 12.3331 29.1951 12.016 29.1584 11.6918C28.5151 5.94406 24.0666 1.48321 18.3371 0.84473ZM18.4253 5.77758C17.7509 5.65299 17.1315 6.08337 17.0032 6.74166C16.8748 7.39996 17.3065 8.04269 17.9625 8.17151C19.9377 8.55658 21.4629 10.0855 21.8495 12.0675V12.0689C21.9595 12.6394 22.4618 13.0542 23.0402 13.0542C23.1178 13.0542 23.1954 13.0472 23.2744 13.033C23.9305 12.9014 24.3622 12.26 24.2338 11.6003C23.6568 8.64011 21.3782 6.35376 18.4253 5.77758ZM20.6664 19.3784C21.306 19.0097 22.0284 18.5931 22.9396 18.787C23.765 18.9611 26.5782 21.2446 27.3486 22.036C27.8537 22.5541 28.1344 23.0893 28.1782 23.6244C28.2543 25.7239 25.4016 28.1206 24.8824 28.4193C24.1925 28.9163 23.3897 29.1668 22.4882 29.1668C21.5669 29.1668 20.5398 28.9049 19.4195 28.3825C13.3415 25.8456 4.05667 16.7441 1.60178 10.7133C0.583136 8.46796 0.576081 6.61623 1.58485 5.22461C1.98694 4.57197 4.27959 1.84393 6.33239 1.93028C6.8784 1.977 7.40888 2.25731 7.92949 2.76696C8.71675 3.53851 10.9431 6.35999 11.1152 7.18817C11.3057 8.10838 10.8881 8.84029 10.517 9.48302C10.4379 9.62118 10.3312 9.78514 10.2144 9.96477C9.77104 10.6465 9.18092 11.5539 9.38973 12.1332C10.8867 15.8083 14.3447 19.0149 18.0214 20.5212C18.59 20.7278 19.4969 20.1335 20.1764 19.6881C20.3534 19.5721 20.515 19.4662 20.6512 19.3872L20.6664 19.3784Z" fill="#050505"/>
</svg>
