<svg width="24" height="24" viewBox="0 0 24 24" fill="none" xmlns="http://www.w3.org/2000/svg">
<g opacity="0.62">
<path fill-rule="evenodd" clip-rule="evenodd" d="M7.68028 13.6539V11.0036H14.0958C14.5425 14.2105 13.1946 19.0207 7.68028 19.0207C3.99119 19.0207 1 16.0243 1 12.3285C1 8.6326 3.99119 5.63672 7.68028 5.63672C9.41121 5.63672 10.9884 6.29604 12.1752 7.37806C11.2559 8.24801 10.961 8.57988 10.7105 8.86169C10.5802 9.0084 10.4619 9.14155 10.2738 9.32998C9.58737 8.76134 8.83892 8.35324 7.68028 8.35324C5.48862 8.35324 3.77802 10.1332 3.77802 12.3285C3.77802 14.5243 5.48862 16.3042 7.68028 16.3042C9.84589 16.3042 10.7257 15.3687 11.2917 13.6502C10.2467 13.6502 7.68028 13.6539 7.68028 13.6539ZM19.7175 8.81696V11.1358H22.0322V12.7922H19.7175V15.1777H18.0642V12.7922H15.6829V11.1358H18.0642V8.81696H19.7175Z" fill="white"/>
</g>
</svg>
