<svg width="24" height="24" viewBox="0 0 24 24" fill="none" xmlns="http://www.w3.org/2000/svg">
<g opacity="0.62">
<path fill-rule="evenodd" clip-rule="evenodd" d="M11.9995 4.58887C14.4026 4.58887 14.6872 4.59801 15.6362 4.64131C16.5137 4.68136 16.9902 4.82798 17.3074 4.9512C17.7275 5.11446 18.0273 5.30952 18.3422 5.62444C18.6572 5.93936 18.8522 6.23921 19.0155 6.65927C19.1387 6.97644 19.2853 7.45299 19.3254 8.33044C19.3687 9.27949 19.3778 9.56412 19.3778 11.9672C19.3778 14.3703 19.3687 14.655 19.3254 15.604C19.2853 16.4815 19.1387 16.958 19.0155 17.2752C18.8522 17.6953 18.6572 17.9951 18.3422 18.31C18.0273 18.6249 17.7275 18.82 17.3074 18.9832C16.9902 19.1065 16.5137 19.2531 15.6362 19.2931C14.6873 19.3364 14.4027 19.3456 11.9995 19.3456C9.5962 19.3456 9.31157 19.3364 8.3627 19.2931C7.48521 19.2531 7.00867 19.1065 6.69153 18.9832C6.27144 18.82 5.97159 18.6249 5.65667 18.31C5.34175 17.9951 5.14669 17.6953 4.98346 17.2752C4.8602 16.958 4.71359 16.4815 4.67354 15.604C4.63024 14.655 4.62109 14.3703 4.62109 11.9672C4.62109 9.56412 4.63024 9.27949 4.67354 8.33048C4.71359 7.45299 4.8602 6.97644 4.98346 6.65927C5.14669 6.23921 5.34175 5.93936 5.65667 5.62444C5.97159 5.30952 6.27144 5.11446 6.69153 4.9512C7.00867 4.82798 7.48521 4.68136 8.36267 4.64131C9.31172 4.59801 9.59634 4.58887 11.9995 4.58887ZM12 2.96777C9.55571 2.96777 9.24926 2.97813 8.28931 3.02193C7.33133 3.06566 6.67712 3.21778 6.10462 3.44028C5.51279 3.67028 5.01088 3.97802 4.51055 4.47836C4.01021 4.97869 3.70247 5.4806 3.47247 6.07243C3.24997 6.64493 3.09785 7.29914 3.05412 8.25712C3.01032 9.21703 3 9.52352 3 11.9678C3 14.4121 3.01032 14.7186 3.05412 15.6785C3.09785 16.6364 3.24997 17.2906 3.47247 17.8632C3.70247 18.4549 4.01021 18.9569 4.51055 19.4572C5.01088 19.9576 5.51279 20.2653 6.10462 20.4953C6.67712 20.7178 7.33133 20.8699 8.28931 20.9136C9.24926 20.9574 9.55571 20.9678 12 20.9678C14.4443 20.9678 14.7507 20.9574 15.7107 20.9136C16.6686 20.8699 17.3228 20.7178 17.8953 20.4953C18.4872 20.2653 18.9891 19.9576 19.4894 19.4572C19.9898 18.9569 20.2975 18.455 20.5275 17.8632C20.75 17.2906 20.9021 16.6364 20.9458 15.6785C20.9896 14.7186 21 14.4121 21 11.9678C21 9.52352 20.9896 9.21703 20.9458 8.25712C20.9021 7.29914 20.75 6.64493 20.5275 6.07243C20.2975 5.4806 19.9898 4.97869 19.4894 4.47836C18.9891 3.97802 18.4872 3.67028 17.8953 3.44028C17.3228 3.21778 16.6686 3.06566 15.7107 3.02193C14.7507 2.97813 14.4443 2.96777 12 2.96777ZM12.0195 7.36035C9.46523 7.36035 7.39453 9.43105 7.39453 11.9854C7.39453 14.5397 9.46523 16.6104 12.0195 16.6104C14.5738 16.6104 16.6445 14.5397 16.6445 11.9854C16.6445 9.43105 14.5738 7.36035 12.0195 7.36035ZM12.0177 14.9879C10.3597 14.9879 9.01551 13.6438 9.01551 11.9857C9.01551 10.3277 10.3597 8.98352 12.0177 8.98352C13.6758 8.98352 15.0199 10.3277 15.0199 11.9857C15.0199 13.6438 13.6758 14.9879 12.0177 14.9879ZM17.8578 7.14633C17.8578 7.73807 17.3781 8.21778 16.7864 8.21778C16.1947 8.21778 15.715 7.73807 15.715 7.14633C15.715 6.55459 16.1947 6.07492 16.7864 6.07492C17.3781 6.07492 17.8578 6.55459 17.8578 7.14633Z" fill="white"/>
</g>
</svg>
