<svg width="34" height="34" viewBox="0 0 34 34" fill="none" xmlns="http://www.w3.org/2000/svg">
<path fill-rule="evenodd" clip-rule="evenodd" d="M4.95801 14.617C4.95801 8.10051 10.4035 2.8335 16.9904 2.8335C23.5958 2.8335 29.0413 8.10051 29.0413 14.617C29.0413 17.9007 27.8471 20.9493 25.8815 23.5332C23.713 26.3835 21.0402 28.8668 18.0318 30.8161C17.3432 31.2666 16.7218 31.3006 15.9661 30.8161C12.9405 28.8668 10.2678 26.3835 8.11788 23.5332C6.15082 20.9493 4.95801 17.9007 4.95801 14.617ZM13.0248 14.9839C13.0248 17.1669 14.8062 18.8839 16.9904 18.8839C19.176 18.8839 20.9745 17.1669 20.9745 14.9839C20.9745 12.8179 19.176 11.0173 16.9904 11.0173C14.8062 11.0173 13.0248 12.8179 13.0248 14.9839Z" fill="#050505"/>
</svg>
