<svg width="24" height="24" viewBox="0 0 24 24" fill="none" xmlns="http://www.w3.org/2000/svg">
<g opacity="0.62">
<path fill-rule="evenodd" clip-rule="evenodd" d="M18.9725 6.45348C19.7398 5.96929 20.3286 5.20152 20.6049 4.28693C19.8865 4.73638 19.0926 5.06142 18.2456 5.23739C17.5698 4.47523 16.6038 4 15.5347 4C13.4836 4 11.8216 5.75409 11.8216 7.91728C11.8216 8.22438 11.8524 8.52364 11.9161 8.80945C8.83003 8.64581 6.09355 7.08787 4.26038 4.71621C3.9405 5.29679 3.75771 5.96929 3.75771 6.68661C3.75771 8.04505 4.41341 9.24433 5.41023 9.94821C4.80129 9.92803 4.22849 9.74982 3.72689 9.45841V9.5066C3.72689 11.4053 5.0064 12.989 6.7078 13.3477C6.39536 13.4396 6.06805 13.4855 5.72798 13.4855C5.48887 13.4855 5.25507 13.462 5.02978 13.416C5.50162 14.9717 6.87358 16.106 8.49953 16.1363C7.22746 17.1876 5.62596 17.813 3.8863 17.813C3.58662 17.813 3.29012 17.7962 3 17.7592C4.64401 18.87 6.59621 19.5189 8.694 19.5189C15.5272 19.5189 19.2616 13.5494 19.2616 8.37233C19.2616 8.20197 19.2595 8.03272 19.252 7.86572C19.9779 7.31315 20.6091 6.62273 21.1054 5.83703C20.4391 6.14862 19.7228 6.35933 18.9725 6.45348Z" fill="white"/>
</g>
</svg>
